<svg width="126.000000" height="110.000000" viewBox="0 0 126 110" fill="none" xmlns="http://www.w3.org/2000/svg" xmlns:xlink="http://www.w3.org/1999/xlink">
	<desc>
			Created with Pixso.
	</desc>
	<defs/>
	<path id="Vector" d="M103.15 25.66C103.15 27.69 101.51 29.33 99.48 29.33C97.46 29.33 95.82 27.69 95.82 25.66C95.82 23.64 97.46 22 99.48 22C101.51 22 103.15 23.64 103.15 25.66Z" fill="#FFC59E" fill-opacity="1.000000" fill-rule="evenodd"/>
	<path id="Vector" d="M95.82 40.33C95.82 42.35 94.18 44 92.15 44C90.13 44 88.48 42.35 88.48 40.33C88.48 38.3 90.13 36.66 92.15 36.66C94.18 36.66 95.82 38.3 95.82 40.33Z" fill="#FFC59E" fill-opacity="1.000000" fill-rule="evenodd"/>
	<path id="Vector" d="M110.48 40.33C110.48 42.35 108.84 44 106.82 44C104.79 44 103.15 42.35 103.15 40.33C103.15 38.3 104.79 36.66 106.82 36.66C108.84 36.66 110.48 38.3 110.48 40.33Z" fill="#FFC59E" fill-opacity="1.000000" fill-rule="evenodd"/>
	<path id="Vector" d="M92.15 7.33L86.4 7.33C83.8 2.94 79.02 0 73.56 0L51.59 0C46.13 0 41.35 2.94 38.74 7.33L33 7.33C14.8 7.33 0 22.13 0 40.33L0 69.66C0 72.6 1.14 75.36 3.22 77.44C4.5 78.72 6.04 79.65 7.73 80.17C8.93 90.46 12.82 100.21 19.06 108.53C20.87 110.93 24.64 110.26 25.51 107.38L32.35 84.56C34.36 86.67 37.19 88 40.33 88C43.17 88 45.77 86.91 47.73 85.13C49.81 86.98 52.46 88 55.24 88C58.08 88 60.68 86.91 62.64 85.13C64.72 86.98 67.37 88 70.15 88C72.97 88 75.54 86.93 77.48 85.19C79.43 86.93 82 88 84.82 88C87.95 88 90.79 86.68 92.79 84.56L99.64 107.38C100.5 110.27 104.28 110.93 106.08 108.53C112.33 100.21 116.21 90.46 117.42 80.17C119.1 79.65 120.64 78.72 121.93 77.44C124.01 75.36 125.15 72.6 125.15 69.66L125.15 40.33C125.15 22.13 110.35 7.33 92.15 7.33ZM51.59 7.33L73.56 7.33C77.75 7.33 81.15 10.73 81.15 14.92C81.15 16.42 80.71 17.88 79.88 19.13L70.44 33.28C69.07 35.33 66.5 36.66 63.88 36.66L61.26 36.66C58.7 36.66 56.09 35.37 54.7 33.28L45.27 19.13C44.44 17.88 44 16.42 44 14.92C44 10.73 47.4 7.33 51.59 7.33ZM7.33 40.33C7.33 26.18 18.84 14.66 33 14.66L36.67 14.66C36.67 14.75 36.66 14.83 36.66 14.92C36.66 17.88 37.53 20.74 39.17 23.2L48.6 37.35C49.42 38.57 50.42 39.66 51.57 40.58C51.42 46.43 46.34 51.33 40.33 51.33L28.7 51.33C20.9 51.33 13.48 53.79 7.33 58.34L7.33 40.33ZM20.78 97.63C17.81 92.12 15.88 86.12 15.08 79.88C16.45 79.33 17.7 78.51 18.77 77.44C21.24 74.98 24.59 73.5 28.06 73.34L20.78 97.63ZM44 77C44 79.02 42.35 80.66 40.33 80.66C38.31 80.66 36.66 79.02 36.66 77L36.66 73.33L40.33 73.33C41.56 73.33 42.78 73.26 44 73.12L44 77ZM58.91 77C58.91 79.02 57.26 80.66 55.24 80.66C53.16 80.66 51.33 78.95 51.33 77L51.33 71.44C54 70.5 56.55 69.22 58.91 67.62C58.91 70.69 58.91 72.87 58.91 77ZM73.82 77C73.82 79.02 72.17 80.66 70.15 80.66C68.07 80.66 66.24 78.95 66.24 77C66.24 72.89 66.24 70.68 66.24 67.62C68.6 69.22 71.14 70.5 73.82 71.44L73.82 77ZM88.48 77C88.48 79.02 86.84 80.66 84.82 80.66C82.8 80.66 81.15 79.02 81.15 77L81.15 73.12C82.36 73.26 83.59 73.33 84.82 73.33L88.48 73.33L88.48 77ZM104.37 97.63L97.08 73.34C100.56 73.51 103.91 74.98 106.37 77.44C107.44 78.51 108.7 79.33 110.06 79.88C109.26 86.12 107.33 92.12 104.37 97.63ZM116.74 72.25C115.3 73.69 112.98 73.68 111.56 72.25C107.58 68.28 102.07 66 96.45 66L84.82 66C77.37 66 70.27 62.76 65.33 57.11C64.64 56.31 63.63 55.86 62.57 55.86C61.51 55.86 60.51 56.31 59.81 57.11C54.88 62.76 47.78 66 40.33 66L32.98 66C32.97 66 32.95 66 32.94 66L28.7 66C23.07 66 17.57 68.28 13.59 72.25C12.17 73.67 9.85 73.7 8.4 72.25C6.97 70.82 6.97 68.5 8.4 67.07C13.82 61.65 21.03 58.66 28.7 58.66L40.33 58.66C45.22 58.66 49.85 56.76 53.38 53.32C56.1 50.66 57.88 47.35 58.58 43.76C59.46 43.91 60.36 44 61.26 44L63.88 44C64.87 44 65.85 43.9 66.8 43.71C68.4 52.21 75.86 58.66 84.82 58.66L96.45 58.66C104.12 58.66 111.32 61.65 116.74 67.07C118.17 68.5 118.17 70.82 116.74 72.25ZM117.82 58.34C111.66 53.79 104.25 51.33 96.45 51.33L84.82 51.33C78.77 51.33 73.85 46.42 73.82 40.38C74.86 39.5 75.79 38.49 76.54 37.35L85.98 23.2C87.62 20.74 88.48 17.88 88.48 14.92C88.48 14.83 88.48 14.75 88.48 14.66L92.15 14.66C106.3 14.66 117.82 26.18 117.82 40.33L117.82 58.34Z" fill="#FFC59E" fill-opacity="1.000000" fill-rule="nonzero"/>
	<path id="Vector" d="M29.33 25.66C29.33 27.69 27.69 29.33 25.66 29.33C23.64 29.33 22 27.69 22 25.66C22 23.64 23.64 22 25.66 22C27.69 22 29.33 23.64 29.33 25.66Z" fill="#FFC59E" fill-opacity="1.000000" fill-rule="evenodd"/>
	<path id="Vector" d="M22 40.33C22 42.35 20.35 44 18.33 44C16.3 44 14.66 42.35 14.66 40.33C14.66 38.3 16.3 36.66 18.33 36.66C20.35 36.66 22 38.3 22 40.33Z" fill="#FFC59E" fill-opacity="1.000000" fill-rule="evenodd"/>
	<path id="Vector" d="M36.66 40.33C36.66 42.35 35.02 44 33 44C30.97 44 29.33 42.35 29.33 40.33C29.33 38.3 30.97 36.66 33 36.66C35.02 36.66 36.66 38.3 36.66 40.33Z" fill="#FFC59E" fill-opacity="1.000000" fill-rule="evenodd"/>
</svg>
