<svg width="127.000000" height="110.000000" viewBox="0 0 127 110" fill="none" xmlns="http://www.w3.org/2000/svg" xmlns:xlink="http://www.w3.org/1999/xlink">
	<desc>
			Created with Pixso.
	</desc>
	<defs/>
	<path id="Vector" d="M92.73 0C82.29 0 73.21 4.96 66.49 14.37C65.16 16.23 64.05 18.08 63.13 19.8C62.22 18.08 61.11 16.23 59.78 14.37C53.05 4.96 43.98 0 33.54 0C14.2 0 0 16.09 0 35.82C0 57.82 17.87 72.87 44.91 95.65C49.95 99.89 55.16 104.28 60.71 109.09C61.41 109.69 62.27 110 63.13 110C64 110 64.86 109.69 65.56 109.09C71.1 104.28 76.31 99.89 81.35 95.65C108.4 72.87 126.27 57.82 126.27 35.82C126.27 16.09 112.07 0 92.73 0ZM76.59 89.99C72.27 93.63 67.82 97.37 63.13 101.41C58.45 97.37 54 93.63 49.68 89.99C35.14 77.75 23.42 67.87 16.04 58.2L33.54 58.2C34.94 58.2 36.22 57.41 36.85 56.16L40.94 47.98L52.43 70.95C53.05 72.21 54.33 73 55.74 73C57.14 73 58.42 72.21 59.04 70.95L63.13 62.77L67.22 70.95C67.85 72.21 69.13 73 70.53 73C71.93 73 73.22 72.21 73.84 70.95L85.33 47.98L89.42 56.16C90.05 57.41 91.33 58.18 92.73 58.18L110.23 58.18C102.85 67.85 91.13 77.75 76.59 89.99ZM95.02 50.8L88.64 38.05C88.01 36.8 86.73 36 85.33 36C83.93 36 82.65 36.8 82.02 38.05L70.53 61.03L66.44 52.85C65.82 51.59 64.54 50.8 63.13 50.8C61.73 50.8 60.45 51.59 59.83 52.85L55.74 61.03L44.25 38.05C43.62 36.8 42.34 36 40.94 36C39.54 36 38.25 36.8 37.63 38.05L31.25 50.8L11.26 50.8C8.75 45.98 7.39 41.08 7.39 35.82C7.39 19.62 18.63 7.39 33.54 7.39C41.54 7.39 48.3 11.13 53.64 18.5C57.84 24.31 59.55 30.27 59.57 30.34C60.02 31.94 61.47 33.04 63.13 33.04C64.8 33.04 66.26 31.93 66.7 30.33C66.76 30.1 73.28 7.39 92.73 7.39C107.64 7.39 118.87 19.62 118.87 35.82C118.87 41.08 117.52 45.98 115.01 50.8L95.02 50.8Z" fill="#FFC59E" fill-opacity="1.000000" fill-rule="nonzero"/>
</svg>
