<svg width="97.000000" height="110.000000" viewBox="0 0 97 110" fill="none" xmlns="http://www.w3.org/2000/svg" xmlns:xlink="http://www.w3.org/1999/xlink">
	<desc>
			Created with Pixso.
	</desc>
	<defs/>
	<path id="Vector" d="M72.15 58.55C75.42 53.82 77.34 48.08 77.34 41.89L77.34 29C77.34 29 77.34 29 77.34 29C77.34 29 77.34 29 77.34 28.99C77.34 13 64.33 0 48.33 0C32.34 0 19.33 13.01 19.33 29L19.33 41.89C19.33 48.08 21.25 53.82 24.52 58.55C10.5 60.7 0 72.92 0 87.22L0 106.77C0 108.55 1.44 110 3.22 110L93.45 110C95.23 110 96.67 108.55 96.67 106.77L96.67 87.22C96.67 72.97 86.22 60.71 72.15 58.55ZM48.33 6.44C59.68 6.44 69.09 14.86 70.66 25.78L64.12 25.78C62.63 18.43 56.12 12.89 48.33 12.89C40.55 12.89 34.04 18.43 32.55 25.78L26.01 25.78C27.58 14.86 36.99 6.44 48.33 6.44ZM58 29C58 34.33 53.67 38.67 48.33 38.67C43 38.67 38.67 34.33 38.67 29C38.67 23.67 43 19.33 48.33 19.33C53.67 19.33 58 23.67 58 29ZM25.78 32.22L32.55 32.22C34.04 39.57 40.55 45.11 48.33 45.11C56.12 45.11 62.63 39.57 64.12 32.22L70.89 32.22L70.89 41.89C70.89 54.45 60.77 64.66 48.33 64.66C42.76 64.66 37.65 62.61 33.7 59.21C33.64 59.15 33.57 59.09 33.5 59.03C28.77 54.86 25.78 48.72 25.78 41.89L25.78 32.22ZM22.55 84C24.33 84 25.78 85.44 25.78 87.22C25.78 89 24.33 90.44 22.55 90.44C20.78 90.44 19.33 89 19.33 87.22C19.33 85.44 20.78 84 22.55 84ZM90.23 103.55L6.44 103.55L6.44 87.22C6.44 78.51 11.49 70.56 19.33 66.82L19.33 78.11C15.58 79.44 12.89 83.02 12.89 87.22C12.89 92.55 17.22 96.89 22.55 96.89C27.88 96.89 32.22 92.55 32.22 87.22C32.22 83.02 29.53 79.44 25.78 78.11L25.78 64.89C27.23 64.68 28.72 64.62 30.23 64.7C35.19 68.71 41.49 71.11 48.33 71.11C54.29 71.11 59.84 69.29 64.45 66.17L64.45 71.43C57.1 72.93 51.56 79.44 51.56 87.22L51.56 90.44C49.78 90.44 48.33 91.89 48.33 93.67C48.33 95.45 49.78 96.89 51.56 96.89L58 96.89C59.78 96.89 61.23 95.45 61.23 93.67C61.23 91.89 59.78 90.44 58 90.44L58 87.22C58 81.89 62.34 77.55 67.67 77.55C73 77.55 77.34 81.89 77.34 87.22L77.34 90.44C75.56 90.44 74.12 91.89 74.12 93.67C74.12 95.45 75.56 96.89 77.34 96.89L83.78 96.89C85.56 96.89 87.01 95.45 87.01 93.67C87.01 91.89 85.56 90.44 83.78 90.44L83.78 87.22C83.78 79.44 78.24 72.93 70.89 71.43L70.89 64.89C82.02 66.46 90.23 76.1 90.23 87.22L90.23 103.55Z" fill="#FFC59E" fill-opacity="1.000000" fill-rule="nonzero"/>
</svg>
