<svg width="142.000000" height="112.000000" viewBox="0 0 142 112" fill="none" xmlns="http://www.w3.org/2000/svg" xmlns:xlink="http://www.w3.org/1999/xlink">
	<desc>
			Created with Pixso.
	</desc>
	<defs/>
	<mask id="mask_376_1636" fill="white">
		<path id="ic / endocr" d="M6.71582 87.8125C9.81641 94.7832 18.7285 111 34.5068 111C37.8936 111.019 41.252 110.393 44.4043 109.155C44.7275 109.037 45.6377 108.484 46.666 107.787C50.749 105.462 57.1221 100.171 57.1221 88.9404C57.1221 86.1172 56.7197 82.9199 55.7773 79.2998C54.0879 76.1582 51.7178 73.4336 48.8389 71.3262C52.0762 70.251 55.2295 68.9355 58.2715 67.3916L58.5752 67.2383C62.2373 65.4258 66.8242 64.3486 71.3887 64.2051C75.374 64.5293 79.3145 65.5996 82.626 67.2383L82.9307 67.3916C85.9727 68.9355 89.125 70.251 92.3623 71.3262C89.4834 73.4336 87.1133 76.1582 85.4248 79.2998C84.4824 82.9199 84.0791 86.1172 84.0791 88.9404C84.0791 100.595 90.9424 105.853 94.9873 108.038C95.8564 108.614 96.5918 109.052 96.875 109.155C100.027 110.393 103.386 111.019 106.772 111C122.551 111 131.463 94.7832 134.563 87.8125C138.385 79.248 140.279 70.5332 140.279 62.2363C140.279 51.8379 137.304 42.0986 131.417 34.1406C129.188 31.126 126.631 29.0986 126.053 28.4287C122.733 25.6377 118.849 23.5996 114.667 22.4551C111.33 21.542 107.035 21.4404 105.844 21.5391C102.71 21.8115 95.665 24.6113 93.2344 28.5537C92.7969 29.2646 92.4434 30.0244 92.1836 30.8174C91.8066 32.0791 91.6201 33.376 91.6201 34.668C91.6201 36.9912 92.2217 39.2979 93.3984 41.3516C88.2129 40.3955 81.4209 37.9648 81.4209 31.6973L81.4209 6.11621C81.4209 3.29102 79.1309 1 76.3047 1L64.9746 1C62.1484 1 59.8584 3.29102 59.8584 6.11621L59.8584 31.6973C59.8584 37.9648 53.0664 40.3955 47.8809 41.3516C49.0576 39.2979 49.6592 36.9912 49.6592 34.668C49.6592 33.376 49.4727 32.0791 49.0957 30.8174C48.8359 30.0244 48.4824 29.2646 48.0449 28.5537C45.6143 24.6113 38.5693 21.8115 35.4355 21.5391C34.2441 21.4404 29.9492 21.542 26.6123 22.4551C22.4297 23.5996 18.5459 25.6377 15.2266 28.4287C14.6484 29.0986 12.0918 31.126 9.8623 34.1406C3.97559 42.0986 1 51.8379 1 62.2363C1 70.5332 2.89453 79.248 6.71582 87.8125ZM51.1846 97.8311C51.0518 98.0029 50.916 98.1816 50.7754 98.3652C49.2441 100.377 47.2217 103.033 43.7188 104.402C40.4209 105.69 37.2471 105.901 34.5068 105.884C21.7422 105.884 14.083 91.793 11.3896 85.7334C7.86621 77.8359 6.11816 69.8271 6.11816 62.2412C6.11816 52.9219 8.75488 44.2402 13.9756 37.1826C18.7119 30.291 26.6533 26.3135 35.0088 26.6475C38.667 26.957 43.1074 28.8789 44.2178 32.3809C44.374 33.0957 44.4502 33.8164 44.4502 34.5303C44.4502 37.6455 42.999 40.6367 40.4443 42.5596C39.8574 43.0547 39.5371 43.7754 39.5371 44.5146C39.5371 44.8086 39.5879 45.1064 39.6924 45.3936C40.0625 46.4023 41.0225 47.0723 42.0967 47.0723C43.0303 47.0723 64.9639 46.8701 64.9639 31.6973L64.9639 6.11621L76.3154 6.11621L76.3154 31.6973C76.3154 46.8701 98.249 47.0723 99.1826 47.0723C100.257 47.0723 101.217 46.4023 101.586 45.3936C101.691 45.1064 101.742 44.8086 101.742 44.5146C101.742 43.7754 101.422 43.0547 100.835 42.5596C98.2803 40.6367 96.8291 37.6455 96.8291 34.5303C96.8291 33.8164 96.9053 33.0957 97.0615 32.3809C98.1719 28.8789 102.612 26.957 106.271 26.6475C114.626 26.3135 122.567 30.291 127.304 37.1826C132.524 44.2402 135.16 52.9219 135.16 62.2412C135.16 69.8271 133.413 77.8359 129.89 85.7334C127.196 91.793 119.537 105.884 106.772 105.884C104.032 105.901 100.858 105.69 97.5605 104.402C94.0576 103.033 92.0352 100.377 90.5039 98.3652C90.3096 98.1113 90.124 97.8672 89.9434 97.6367C89.0508 95.2354 88.4541 92.5254 88.4541 89.5625C88.4541 87.1025 88.8652 84.4688 89.8604 81.6943C92.3623 77.2803 95.9473 74.3555 100.325 72.5615C101.255 72.1416 101.829 71.2197 101.829 70.2324C101.829 70.0557 101.811 69.8779 101.773 69.6992C101.523 68.5244 100.489 67.6807 99.2871 67.6729C99.2637 67.6602 94.6006 67.4912 85.2168 62.7998L84.9102 62.6465C80.4072 60.416 75.4941 59.3555 70.6006 59.4639C65.707 59.3555 60.7939 60.416 56.291 62.6465L55.9844 62.7998C46.6006 67.4912 41.9375 67.6602 41.9141 67.6729C40.7129 67.6807 39.6777 68.5244 39.4287 69.6992C39.3906 69.8779 39.3721 70.0557 39.3721 70.2324C39.3721 71.2197 39.9463 72.1416 40.876 72.5615C45.2549 74.3555 48.8389 77.2803 51.3408 81.6943C52.3359 84.4688 52.7471 87.1025 52.7471 89.5625C52.7471 92.6055 52.1182 95.3818 51.1846 97.8311ZM18.0811 40.2236C15.124 44.2627 13.0801 48.8955 12.0898 53.8018C12.0527 53.9795 12.0342 54.1562 12.0342 54.3301C12.0342 55.5146 12.8623 56.5781 14.0674 56.8311C14.2402 56.8662 14.417 56.8848 14.5938 56.8848C15.8066 56.8809 16.8506 56.0264 17.0938 54.8379C17.9365 50.6523 19.6758 46.6992 22.1914 43.25C24.7705 39.5117 28.9053 37.1455 33.4346 36.8135C34.8477 36.8135 35.9932 35.668 35.9932 34.2559C35.9932 32.8428 34.8477 31.6973 33.4346 31.6973C27.2734 32.0107 21.6035 35.1592 18.0811 40.2236ZM72.6484 52.1631L72.6484 41.9307C72.6484 40.5176 71.5029 39.3721 70.0908 39.3721C68.6777 39.3721 67.5322 40.5176 67.5322 41.9307L67.5322 52.1631C67.5322 53.5762 68.6777 54.7207 70.0908 54.7207C71.5029 54.7207 72.6484 53.5762 72.6484 52.1631ZM119.639 92.3066C122.596 88.2676 124.64 83.6348 125.63 78.7275C125.667 78.5508 125.685 78.374 125.685 78.1992C125.685 77.0156 124.857 75.9521 123.652 75.6992C123.479 75.6631 123.303 75.6455 123.125 75.6455C121.912 75.6484 120.869 76.5029 120.626 77.6914C119.783 81.877 118.044 85.8301 115.527 89.2803C112.948 93.0176 108.813 95.3848 104.285 95.7158C102.872 95.7158 101.727 96.8613 101.727 98.2744C101.727 99.6875 102.872 100.832 104.285 100.832C110.446 100.519 116.115 97.3711 119.639 92.3066Z" clip-rule="evenodd" fill="" fill-opacity="1.000000" fill-rule="evenodd"/>
	</mask>
	<path id="ic / endocr" d="M6.71582 87.8125C9.81641 94.7832 18.7285 111 34.5068 111C37.8936 111.019 41.252 110.393 44.4043 109.155C44.7275 109.037 45.6377 108.484 46.666 107.787C50.749 105.462 57.1221 100.171 57.1221 88.9404C57.1221 86.1172 56.7197 82.9199 55.7773 79.2998C54.0879 76.1582 51.7178 73.4336 48.8389 71.3262C52.0762 70.251 55.2295 68.9355 58.2715 67.3916L58.5752 67.2383C62.2373 65.4258 66.8242 64.3486 71.3887 64.2051C75.374 64.5293 79.3145 65.5996 82.626 67.2383L82.9307 67.3916C85.9727 68.9355 89.125 70.251 92.3623 71.3262C89.4834 73.4336 87.1133 76.1582 85.4248 79.2998C84.4824 82.9199 84.0791 86.1172 84.0791 88.9404C84.0791 100.595 90.9424 105.853 94.9873 108.038C95.8564 108.614 96.5918 109.052 96.875 109.155C100.027 110.393 103.386 111.019 106.772 111C122.551 111 131.463 94.7832 134.563 87.8125C138.385 79.248 140.279 70.5332 140.279 62.2363C140.279 51.8379 137.304 42.0986 131.417 34.1406C129.188 31.126 126.631 29.0986 126.053 28.4287C122.733 25.6377 118.849 23.5996 114.667 22.4551C111.33 21.542 107.035 21.4404 105.844 21.5391C102.71 21.8115 95.665 24.6113 93.2344 28.5537C92.7969 29.2646 92.4434 30.0244 92.1836 30.8174C91.8066 32.0791 91.6201 33.376 91.6201 34.668C91.6201 36.9912 92.2217 39.2979 93.3984 41.3516C88.2129 40.3955 81.4209 37.9648 81.4209 31.6973L81.4209 6.11621C81.4209 3.29102 79.1309 1 76.3047 1L64.9746 1C62.1484 1 59.8584 3.29102 59.8584 6.11621L59.8584 31.6973C59.8584 37.9648 53.0664 40.3955 47.8809 41.3516C49.0576 39.2979 49.6592 36.9912 49.6592 34.668C49.6592 33.376 49.4727 32.0791 49.0957 30.8174C48.8359 30.0244 48.4824 29.2646 48.0449 28.5537C45.6143 24.6113 38.5693 21.8115 35.4355 21.5391C34.2441 21.4404 29.9492 21.542 26.6123 22.4551C22.4297 23.5996 18.5459 25.6377 15.2266 28.4287C14.6484 29.0986 12.0918 31.126 9.8623 34.1406C3.97559 42.0986 1 51.8379 1 62.2363C1 70.5332 2.89453 79.248 6.71582 87.8125ZM51.1846 97.8311C51.0518 98.0029 50.916 98.1816 50.7754 98.3652C49.2441 100.377 47.2217 103.033 43.7188 104.402C40.4209 105.69 37.2471 105.901 34.5068 105.884C21.7422 105.884 14.083 91.793 11.3896 85.7334C7.86621 77.8359 6.11816 69.8271 6.11816 62.2412C6.11816 52.9219 8.75488 44.2402 13.9756 37.1826C18.7119 30.291 26.6533 26.3135 35.0088 26.6475C38.667 26.957 43.1074 28.8789 44.2178 32.3809C44.374 33.0957 44.4502 33.8164 44.4502 34.5303C44.4502 37.6455 42.999 40.6367 40.4443 42.5596C39.8574 43.0547 39.5371 43.7754 39.5371 44.5146C39.5371 44.8086 39.5879 45.1064 39.6924 45.3936C40.0625 46.4023 41.0225 47.0723 42.0967 47.0723C43.0303 47.0723 64.9639 46.8701 64.9639 31.6973L64.9639 6.11621L76.3154 6.11621L76.3154 31.6973C76.3154 46.8701 98.249 47.0723 99.1826 47.0723C100.257 47.0723 101.217 46.4023 101.586 45.3936C101.691 45.1064 101.742 44.8086 101.742 44.5146C101.742 43.7754 101.422 43.0547 100.835 42.5596C98.2803 40.6367 96.8291 37.6455 96.8291 34.5303C96.8291 33.8164 96.9053 33.0957 97.0615 32.3809C98.1719 28.8789 102.612 26.957 106.271 26.6475C114.626 26.3135 122.567 30.291 127.304 37.1826C132.524 44.2402 135.16 52.9219 135.16 62.2412C135.16 69.8271 133.413 77.8359 129.89 85.7334C127.196 91.793 119.537 105.884 106.772 105.884C104.032 105.901 100.858 105.69 97.5605 104.402C94.0576 103.033 92.0352 100.377 90.5039 98.3652C90.3096 98.1113 90.124 97.8672 89.9434 97.6367C89.0508 95.2354 88.4541 92.5254 88.4541 89.5625C88.4541 87.1025 88.8652 84.4688 89.8604 81.6943C92.3623 77.2803 95.9473 74.3555 100.325 72.5615C101.255 72.1416 101.829 71.2197 101.829 70.2324C101.829 70.0557 101.811 69.8779 101.773 69.6992C101.523 68.5244 100.489 67.6807 99.2871 67.6729C99.2637 67.6602 94.6006 67.4912 85.2168 62.7998L84.9102 62.6465C80.4072 60.416 75.4941 59.3555 70.6006 59.4639C65.707 59.3555 60.7939 60.416 56.291 62.6465L55.9844 62.7998C46.6006 67.4912 41.9375 67.6602 41.9141 67.6729C40.7129 67.6807 39.6777 68.5244 39.4287 69.6992C39.3906 69.8779 39.3721 70.0557 39.3721 70.2324C39.3721 71.2197 39.9463 72.1416 40.876 72.5615C45.2549 74.3555 48.8389 77.2803 51.3408 81.6943C52.3359 84.4688 52.7471 87.1025 52.7471 89.5625C52.7471 92.6055 52.1182 95.3818 51.1846 97.8311ZM18.0811 40.2236C15.124 44.2627 13.0801 48.8955 12.0898 53.8018C12.0527 53.9795 12.0342 54.1562 12.0342 54.3301C12.0342 55.5146 12.8623 56.5781 14.0674 56.8311C14.2402 56.8662 14.417 56.8848 14.5938 56.8848C15.8066 56.8809 16.8506 56.0264 17.0938 54.8379C17.9365 50.6523 19.6758 46.6992 22.1914 43.25C24.7705 39.5117 28.9053 37.1455 33.4346 36.8135C34.8477 36.8135 35.9932 35.668 35.9932 34.2559C35.9932 32.8428 34.8477 31.6973 33.4346 31.6973C27.2734 32.0107 21.6035 35.1592 18.0811 40.2236ZM72.6484 52.1631L72.6484 41.9307C72.6484 40.5176 71.5029 39.3721 70.0908 39.3721C68.6777 39.3721 67.5322 40.5176 67.5322 41.9307L67.5322 52.1631C67.5322 53.5762 68.6777 54.7207 70.0908 54.7207C71.5029 54.7207 72.6484 53.5762 72.6484 52.1631ZM119.639 92.3066C122.596 88.2676 124.64 83.6348 125.63 78.7275C125.667 78.5508 125.685 78.374 125.685 78.1992C125.685 77.0156 124.857 75.9521 123.652 75.6992C123.479 75.6631 123.303 75.6455 123.125 75.6455C121.912 75.6484 120.869 76.5029 120.626 77.6914C119.783 81.877 118.044 85.8301 115.527 89.2803C112.948 93.0176 108.813 95.3848 104.285 95.7158C102.872 95.7158 101.727 96.8613 101.727 98.2744C101.727 99.6875 102.872 100.832 104.285 100.832C110.446 100.519 116.115 97.3711 119.639 92.3066Z" clip-rule="evenodd" fill="#FFC59E" fill-opacity="1.000000" fill-rule="evenodd" mask="url(#mask_376_1636)"/>
	<path id="ic / endocr" d="M0 62.2363Q0 75.2158 5.80273 88.2197L5.80176 88.2188Q9.60938 96.7812 15.125 102.702Q21.6775 109.736 29.4087 111.449Q31.8967 112 34.5068 112Q37.1227 112.015 39.6507 111.551Q42.2452 111.075 44.7471 110.095L44.7479 110.094Q45.3886 109.86 47.1983 108.635Q51.9403 105.924 54.6238 101.856Q58.1221 96.5517 58.1221 88.9404Q58.1221 84.3379 56.7451 79.0479L56.7148 78.9316L56.6582 78.8262Q55.3214 76.3391 53.5135 74.2619Q52.3074 72.876 50.8915 71.6726Q52.4853 71.096 54.0475 70.4433Q56.4223 69.4511 58.7236 68.2832L59.0254 68.1309Q64.4763 65.4336 71.3648 65.2059Q77.2315 65.6935 82.1442 68.1158Q82.1634 68.1253 82.1826 68.1348L82.4805 68.2852Q84.6391 69.3804 86.863 70.3213Q88.5672 71.0423 90.3097 71.6726Q88.8921 72.8775 87.6849 74.2654Q85.8792 76.3412 84.5439 78.8262L84.4873 78.9316L84.457 79.0479Q83.0791 84.3379 83.0791 88.9404Q83.0791 96.6285 86.6275 101.951Q89.4364 106.164 94.4689 108.895Q95.9778 109.892 96.5314 110.094L96.5322 110.095Q98.9959 111.06 101.551 111.536Q104.118 112.015 106.778 112Q109.379 112 111.858 111.452Q119.595 109.743 126.154 102.702Q131.67 96.7812 135.478 88.2188Q141.279 75.2158 141.279 62.2363Q141.279 50.8455 136.933 41.4691Q135.005 37.3093 132.222 33.5459Q130.544 31.2793 127.602 28.54Q126.932 27.916 126.81 27.7754L126.758 27.7148L126.696 27.6631Q124.091 25.4727 121.147 23.9287Q118.208 22.3874 114.931 21.4902Q110.137 20.1787 105.761 20.543Q102.781 20.8018 98.8281 22.7754Q94.1953 25.0889 92.3838 28.0293Q92.0284 28.6055 91.744 29.2149Q91.451 29.8428 91.2334 30.5059L91.2285 30.5186L91.2246 30.5312Q90.9209 31.5484 90.7698 32.5878Q90.6201 33.617 90.6201 34.668Q90.6201 36.5927 91.0988 38.3899Q91.3098 39.1818 91.6137 39.949Q84.5203 38.2127 82.9004 34.2428Q82.4209 33.0679 82.4209 31.6973L82.4209 6.11621Q82.4209 4.85023 81.9736 3.76938Q81.5258 2.68745 80.6299 1.79102Q79.7334 0.895066 78.6515 0.447312Q77.5707 0 76.3047 0L64.9746 0Q63.7053 0 62.6224 0.449325Q61.5434 0.897078 60.6494 1.79102Q59.7535 2.68745 59.3057 3.76938Q58.8584 4.85023 58.8584 6.11621L58.8584 31.6973Q58.8584 33.0679 58.3789 34.2428Q56.759 38.2127 49.6656 39.949Q49.9695 39.1818 50.1805 38.3899Q50.6592 36.5927 50.6592 34.668Q50.6592 33.6203 50.5102 32.5943Q50.3589 31.5516 50.0537 30.5312L50.0508 30.5186L50.0459 30.5059Q49.8283 29.8428 49.5353 29.2149Q49.2509 28.6055 48.8955 28.0293Q47.083 25.0889 42.4512 22.7754Q38.498 20.8018 35.5225 20.543Q31.1426 20.1787 26.3486 21.4902Q23.0717 22.3874 20.1326 23.9287Q17.1883 25.4727 14.583 27.6631L14.5215 27.7148L14.4688 27.7754Q14.3477 27.916 13.6777 28.54Q10.7344 31.2793 9.05762 33.5459Q6.27411 37.3093 4.34601 41.4691Q0 50.8455 0 62.2363ZM49.1544 41.092C48.7225 41.1888 48.2965 41.2749 47.8809 41.3516C48.0926 40.9821 48.2857 40.6044 48.46 40.2199C49.2546 38.4673 49.6592 36.5732 49.6592 34.668C49.6592 33.376 49.4727 32.0791 49.0957 30.8174C48.8359 30.0244 48.4824 29.2646 48.0449 28.5537C45.6143 24.6113 38.5693 21.8115 35.4355 21.5391C34.2441 21.4404 29.9492 21.542 26.6123 22.4551C22.4297 23.5996 18.5459 25.6377 15.2266 28.4287C14.6484 29.0986 12.0918 31.126 9.8623 34.1406C3.97559 42.0986 1 51.8379 1 62.2363C1 70.5332 2.89453 79.248 6.71582 87.8125C9.81641 94.7832 18.7285 111 34.5068 111C37.8936 111.019 41.252 110.393 44.4043 109.155C44.7275 109.037 45.6377 108.484 46.666 107.787C50.749 105.462 57.1221 100.171 57.1221 88.9404C57.1221 86.1172 56.7197 82.9199 55.7773 79.2998C54.2779 76.5116 52.2424 74.0518 49.7908 72.0605C49.4801 71.8081 49.1627 71.5632 48.8389 71.3262C49.2212 71.1992 49.6023 71.0689 49.9822 70.9352C52.8194 69.9371 55.5887 68.7532 58.2715 67.3916L58.5752 67.2383C62.2373 65.4258 66.8242 64.3486 71.3887 64.2051C75.374 64.5293 79.3145 65.5996 82.626 67.2383L82.9307 67.3916C85.6134 68.7532 88.382 69.9371 91.219 70.9352C91.5989 71.0689 91.98 71.1992 92.3623 71.3262C92.0385 71.5632 91.7211 71.8081 91.4104 72.0605C88.9588 74.0518 86.9234 76.5116 85.4248 79.2998C84.4824 82.9199 84.0791 86.1172 84.0791 88.9404C84.0791 100.595 90.9424 105.853 94.9873 108.038C95.8564 108.614 96.5918 109.052 96.875 109.155C100.027 110.393 103.386 111.019 106.772 111C122.551 111 131.463 94.7832 134.563 87.8125C138.385 79.248 140.279 70.5332 140.279 62.2363C140.279 51.8379 137.304 42.0986 131.417 34.1406C129.188 31.126 126.631 29.0986 126.053 28.4287C122.733 25.6377 118.849 23.5996 114.667 22.4551C111.33 21.542 107.035 21.4404 105.844 21.5391C102.71 21.8115 95.665 24.6113 93.2344 28.5537C92.7969 29.2646 92.4434 30.0244 92.1836 30.8174C91.8066 32.0791 91.6201 33.376 91.6201 34.668C91.6201 36.5732 92.0247 38.4673 92.8193 40.2199C92.9936 40.6044 93.1867 40.9821 93.3984 41.3516C92.9828 41.2749 92.5568 41.1888 92.1249 41.092C87.1677 39.9812 81.4209 37.4625 81.4209 31.6973L81.4209 6.11621C81.4209 3.29102 79.1309 1 76.3047 1L64.9746 1C62.1484 1 59.8584 3.29102 59.8584 6.11621L59.8584 31.6973C59.8584 37.4625 54.1116 39.9812 49.1544 41.092ZM13.9756 37.1826C8.75488 44.2402 6.11816 52.9219 6.11816 62.2412C6.11816 69.8271 7.86621 77.8359 11.3896 85.7334C14.083 91.793 21.7422 105.884 34.5068 105.884C37.2471 105.901 40.4209 105.69 43.7188 104.402C47.2217 103.033 49.2441 100.377 50.7754 98.3652C50.916 98.1816 51.0518 98.0029 51.1846 97.8311C52.1182 95.3818 52.7471 92.6055 52.7471 89.5625C52.7471 87.1025 52.3359 84.4688 51.3408 81.6943C48.8389 77.2803 45.2549 74.3555 40.876 72.5615C39.9463 72.1416 39.3721 71.2197 39.3721 70.2324C39.3721 70.0557 39.3906 69.8779 39.4287 69.6992C39.6777 68.5244 40.7129 67.6807 41.9141 67.6729C41.9375 67.6602 46.6006 67.4912 55.9844 62.7998L56.291 62.6465C60.7939 60.416 65.707 59.3555 70.6006 59.4639C75.4941 59.3555 80.4072 60.416 84.9102 62.6465L85.2168 62.7998C94.6006 67.4912 99.2637 67.6602 99.2871 67.6729C100.489 67.6807 101.523 68.5244 101.773 69.6992Q101.829 69.9673 101.829 70.2324C101.829 71.2197 101.255 72.1416 100.325 72.5615C95.9473 74.3555 92.3623 77.2803 89.8604 81.6943C88.8652 84.4688 88.4541 87.1025 88.4541 89.5625C88.4541 92.5254 89.0508 95.2354 89.9434 97.6367C90.124 97.8672 90.3096 98.1113 90.5039 98.3652C92.0352 100.377 94.0576 103.033 97.5605 104.402C100.858 105.69 104.032 105.901 106.772 105.884C119.537 105.884 127.196 91.793 129.89 85.7334C133.413 77.8359 135.16 69.8271 135.16 62.2412C135.16 52.9219 132.524 44.2402 127.304 37.1826C122.567 30.291 114.626 26.3135 106.271 26.6475C102.612 26.957 98.1719 28.8789 97.0615 32.3809C96.9053 33.0957 96.8291 33.8164 96.8291 34.5303C96.8291 37.6455 98.2803 40.6367 100.835 42.5596C101.422 43.0547 101.742 43.7754 101.742 44.5146C101.742 44.8086 101.691 45.1064 101.586 45.3936C101.217 46.4023 100.257 47.0723 99.1826 47.0723C98.249 47.0723 76.3154 46.8701 76.3154 31.6973L76.3154 6.11621L64.9639 6.11621L64.9639 31.6973C64.9639 46.8701 43.0303 47.0723 42.0967 47.0723C41.0225 47.0723 40.0625 46.4023 39.6924 45.3936C39.5879 45.1064 39.5371 44.8086 39.5371 44.5146C39.5371 43.7754 39.8574 43.0547 40.4443 42.5596C42.999 40.6367 44.4502 37.6455 44.4502 34.5303C44.4502 33.8164 44.374 33.0957 44.2178 32.3809C43.1074 28.8789 38.667 26.957 35.0088 26.6475C26.6533 26.3135 18.7119 30.291 13.9756 37.1826ZM34.9491 27.6467Q28.5247 27.394 23.49 29.9157Q18.4481 32.4412 14.7998 37.749L14.79 37.7627L14.7793 37.7764Q12.6888 40.6026 11.1688 43.708Q7.11816 51.9832 7.11816 62.2412Q7.11816 73.7061 12.3027 85.3271Q15.4834 92.4814 19.915 97.4121Q25.5509 103.681 32.0085 104.69Q33.246 104.884 34.5137 104.884Q39.6504 104.918 43.3545 103.471Q46.5957 102.204 49.9805 97.7598L49.9814 97.7578L50.3017 97.3388Q51.6068 93.8513 51.7335 90.3216Q51.7471 89.9423 51.7471 89.5625Q51.7471 89.4631 51.7461 89.3637Q51.7119 85.7323 50.4281 82.1127Q48.9525 79.5331 46.8904 77.5692Q44.1948 75.0021 40.4971 73.4873L40.4805 73.4805L40.4639 73.4727Q39.4165 72.9988 38.8935 72.1871Q38.3721 71.3777 38.3721 70.2324Q38.3721 70.0551 38.3896 69.8796Q38.4091 69.6848 38.4502 69.4922Q38.7475 68.0919 39.612 67.387Q40.464 66.6923 41.8671 66.6733Q41.8696 66.673 41.8721 66.6729Q46.7969 66.2754 55.5371 61.9053L55.8477 61.75Q59.3361 60.0221 63.0263 59.2008Q66.7128 58.3802 70.6006 58.4644Q74.4693 58.3806 78.1395 59.1932Q81.8499 60.0146 85.3574 61.752L85.6641 61.9053Q94.4043 66.2754 99.3291 66.6729Q99.3316 66.673 99.3341 66.6733Q100.737 66.6923 101.589 67.387Q102.454 68.0919 102.751 69.4922Q102.792 69.6848 102.812 69.8796Q102.829 70.0551 102.829 70.2324Q102.829 71.3785 102.307 72.1882Q101.785 72.9991 100.738 73.4727L100.722 73.4805L100.705 73.4873Q97.0049 75.0029 94.3083 77.5719Q92.2477 79.5348 90.7731 82.1127Q89.4892 85.7323 89.455 89.3637Q89.4541 89.4631 89.4541 89.5625Q89.4541 89.9393 89.4675 90.3155Q89.5897 93.7498 90.8276 97.1444Q91.0041 97.3728 91.2988 97.7598Q94.6836 102.204 97.9248 103.471Q101.629 104.918 106.772 104.884Q108.031 104.884 109.26 104.693Q115.721 103.689 121.364 97.4121Q125.796 92.4814 128.977 85.3252Q134.16 73.7061 134.16 62.2412Q134.16 51.9811 130.108 43.7046Q128.589 40.601 126.5 37.7764L126.489 37.7627L126.479 37.749Q122.831 32.4411 117.789 29.9157Q112.755 27.394 106.33 27.6467Q100.86 28.1155 98.8384 31.0007Q98.3199 31.7408 98.0284 32.6398Q97.9175 33.1604 97.8683 33.6867Q97.8291 34.1066 97.8291 34.5303Q97.8291 36.7866 98.7302 38.5936Q99.632 40.4022 101.437 41.7607L101.459 41.7773L101.48 41.7949Q102.11 42.3269 102.425 43.005Q102.742 43.6861 102.742 44.5146Q102.742 44.819 102.692 45.1147Q102.637 45.4309 102.525 45.7373Q102.097 46.9067 101.261 47.4904Q100.425 48.0732 99.1826 48.0723Q96.4669 48.0723 93.8092 47.6792Q90.3917 47.1738 87.0703 46.0186Q79.5182 43.3929 76.8181 38.2298Q75.3154 35.3564 75.3154 31.6973L75.3154 7.11621L65.9639 7.11621L65.9639 31.6973Q65.9639 35.3564 64.4612 38.2298Q61.7611 43.3929 54.209 46.0186Q50.8624 47.1824 47.4191 47.6867Q44.7866 48.0723 42.0977 48.0723Q40.8537 48.0732 40.0179 47.4897Q39.1817 46.906 38.7539 45.7373Q38.6419 45.4309 38.5877 45.1147Q38.5371 44.819 38.5371 44.5146Q38.5371 43.6861 38.8539 43.005Q39.1694 42.3269 39.7988 41.7949L39.8203 41.7773L39.8428 41.7607Q41.6473 40.4022 42.5491 38.5936Q43.4502 36.7866 43.4502 34.5303Q43.4502 34.1066 43.4109 33.6867Q43.3618 33.1604 43.251 32.6399Q42.9591 31.7406 42.4404 31.0004Q40.4185 28.1155 34.9491 27.6467ZM17.272 39.6348Q20.2016 35.4314 24.2248 33.1975Q28.2555 30.9594 33.3838 30.6982L33.4092 30.6973L33.4346 30.6973Q34.1714 30.6973 34.8004 30.9578Q35.4292 31.2183 35.9502 31.7393Q36.4713 32.2599 36.732 32.8885Q36.9932 33.518 36.9932 34.2559Q36.9932 36.0342 36.104 36.9236Q35.2231 37.8047 33.4696 37.8134Q30.1494 38.0643 27.5408 39.5579Q24.9181 41.0596 23.0146 43.8174L23.0068 43.8281L23 43.8389Q21.1617 46.3586 19.9324 49.1468Q18.6937 51.9562 18.0732 55.0381Q17.7842 56.455 16.9166 57.1667Q16.046 57.8809 14.5928 57.8848Q14.5241 57.8846 14.4556 57.8818Q14.1575 57.8699 13.8613 57.8096Q12.4459 57.5123 11.7391 56.6405Q11.0342 55.771 11.0342 54.3301Q11.0342 54.0326 11.083 53.7434Q11.0948 53.6737 11.1094 53.6045Q11.8833 49.7676 13.4272 46.2708Q14.9668 42.7838 17.272 39.6348ZM18.0811 40.2236C15.124 44.2627 13.0801 48.8955 12.0898 53.8018C12.0527 53.9795 12.0342 54.1562 12.0342 54.3301C12.0342 55.5146 12.8623 56.5781 14.0674 56.8311C14.2402 56.8662 14.417 56.8848 14.5938 56.8848C15.8066 56.8809 16.8506 56.0264 17.0938 54.8379C17.9365 50.6523 19.6758 46.6992 22.1914 43.25C24.7705 39.5117 28.9053 37.1455 33.4346 36.8135C34.8477 36.8135 35.9932 35.668 35.9932 34.2559C35.9932 32.8428 34.8477 31.6973 33.4346 31.6973C27.2734 32.0107 21.6035 35.1592 18.0811 40.2236ZM72.759 54.8313Q73.6484 53.9419 73.6484 52.1631L73.6484 41.9307Q73.6484 40.1509 72.7585 39.2612Q71.8691 38.3721 70.0908 38.3721Q69.3518 38.3721 68.7214 38.6338Q68.094 38.8943 67.5742 39.4141Q67.0524 39.9363 66.7919 40.5666Q66.5322 41.195 66.5322 41.9307L66.5322 52.1631Q66.5322 52.9 66.7928 53.5289Q67.0533 54.1578 67.5742 54.6787Q68.094 55.1985 68.7214 55.459Q69.3518 55.7207 70.0908 55.7207Q71.8696 55.7207 72.759 54.8313ZM72.6484 41.9307L72.6484 52.1631C72.6484 53.5762 71.5029 54.7207 70.0908 54.7207C68.6777 54.7207 67.5322 53.5762 67.5322 52.1631L67.5322 41.9307C67.5322 40.5176 68.6777 39.3721 70.0908 39.3721C71.5029 39.3721 72.6484 40.5176 72.6484 41.9307ZM119.639 92.3066C122.596 88.2676 124.64 83.6348 125.63 78.7275C125.667 78.5508 125.685 78.374 125.685 78.1992C125.685 77.0156 124.857 75.9521 123.652 75.6992C123.479 75.6631 123.303 75.6455 123.125 75.6455C121.912 75.6484 120.869 76.5029 120.626 77.6914C119.783 81.877 118.044 85.8301 115.527 89.2803C112.948 93.0176 108.813 95.3848 104.285 95.7158C102.872 95.7158 101.727 96.8613 101.727 98.2744C101.727 99.6875 102.872 100.832 104.285 100.832C110.446 100.519 116.115 97.3711 119.639 92.3066ZM104.249 94.716Q107.569 94.4658 110.177 92.9729Q112.801 91.4712 114.705 88.7119L114.712 88.7012L114.72 88.6904Q116.555 86.1741 117.784 83.39Q119.025 80.5772 119.646 77.4912Q119.935 76.0753 120.802 75.3639Q121.673 74.6494 123.127 74.6455Q123.151 74.6455 123.174 74.6458Q123.517 74.6503 123.858 74.7197Q125.274 75.0175 125.98 75.8895Q126.685 76.7589 126.685 78.1992Q126.685 78.5281 126.626 78.8461Q126.619 78.886 126.61 78.9258Q125.837 82.7581 124.295 86.2514Q122.759 89.7324 120.46 92.8768L120.46 92.877Q117.526 97.0946 113.493 99.3333Q109.463 101.57 104.336 101.831L104.311 101.832L104.285 101.832Q103.546 101.832 102.916 101.57Q102.288 101.31 101.769 100.79Q101.248 100.269 100.987 99.6402Q100.727 99.0113 100.727 98.2744Q100.727 97.5375 100.987 96.9086Q101.248 96.2797 101.769 95.7588Q102.289 95.2377 102.918 94.9769Q103.532 94.7222 104.249 94.716Z" clip-rule="evenodd" fill="#FFC59E" fill-opacity="1.000000" fill-rule="evenodd"/>
</svg>
