<svg width="110.000000" height="102.000000" viewBox="0 0 110 102" fill="none" xmlns="http://www.w3.org/2000/svg" xmlns:xlink="http://www.w3.org/1999/xlink">
	<desc>
			Created with Pixso.
	</desc>
	<defs/>
	<path id="Vector" d="M110 66.8C110 64.98 108.52 63.51 106.71 63.51L105.68 63.51L106.13 63.06C107.42 61.77 107.42 59.69 106.13 58.41C104.85 57.12 102.76 57.12 101.48 58.41L96.37 63.51L96.22 63.51C92.33 63.51 88.64 61.81 86.12 58.84L81.62 53.57C84.71 49.36 87.17 44.39 88.97 38.71C94.14 36.88 97.8 33.87 99.87 29.76C103.53 22.47 104.82 5.64 95.88 1.12C91.89 -0.9 86.72 -0.18 81.34 3.14C77.08 5.77 73.16 9.76 71.13 13.56C67.24 20.81 68.77 27.21 69.75 29.91C68.67 33.32 67.26 36.26 65.52 38.74L61.49 35.31C58.52 32.78 56.82 29.1 56.82 25.2L56.82 25.05L61.92 19.95C63.21 18.66 63.21 16.58 61.92 15.29C60.64 14.01 58.56 14.01 57.27 15.29L56.82 15.75L56.82 14.72C56.82 12.9 55.35 11.43 53.53 11.43C51.72 11.43 50.24 12.9 50.24 14.72L50.24 15.75L49.79 15.29C48.51 14.01 46.42 14.01 45.14 15.29C43.86 16.58 43.86 18.66 45.14 19.95L50.24 25.05L50.24 25.2C50.24 31.03 52.79 36.54 57.22 40.32L61.04 43.57C55.63 47.89 48.31 49.46 39.12 48.22C38.36 48.12 37.59 48.04 36.83 47.98L31.72 41.99C27.94 37.55 22.43 35 16.6 35L16.45 35L11.35 29.9C10.07 28.62 7.98 28.62 6.7 29.9C5.41 31.19 5.41 33.27 6.7 34.55L7.15 35.01L6.12 35.01C4.31 35.01 2.83 36.48 2.83 38.29C2.83 40.11 4.31 41.58 6.12 41.58L7.15 41.58L6.7 42.04C5.41 43.32 5.41 45.4 6.7 46.69C7.34 47.33 8.18 47.65 9.02 47.65C9.87 47.65 10.71 47.33 11.35 46.69L16.45 41.58L16.61 41.58C20.5 41.58 24.19 43.29 26.71 46.25L28.44 48.28C26.31 48.59 24.23 49.08 22.22 49.76C16.7 51.6 11.72 54.81 7.82 59.03C1.1 66.3 -1.36 75.37 0.7 85.26C2.22 92.54 5.69 97.7 5.84 97.91C6.46 98.83 7.49 99.35 8.56 99.35C8.82 99.35 9.08 99.32 9.35 99.26C10.68 98.93 11.67 97.8 11.83 96.43C11.84 96.28 13.63 81.33 22.83 72.86C24.01 71.78 28.44 68.35 36.26 69.4C39 69.77 41.64 69.99 44.2 70.07L48.85 76.17C51.21 79.27 52.09 83.23 51.26 87.04L51.23 87.18L45.16 91.08C43.63 92.07 43.18 94.1 44.17 95.63C45.15 97.16 47.18 97.6 48.71 96.62L49.25 96.27L49.03 97.28C48.64 99.05 49.77 100.81 51.54 101.19C51.78 101.24 52.02 101.27 52.25 101.27C53.76 101.27 55.12 100.22 55.46 98.68L55.68 97.67L56.02 98.21C56.65 99.19 57.71 99.72 58.79 99.72C59.4 99.72 60.02 99.55 60.57 99.2C62.1 98.22 62.54 96.18 61.56 94.66L57.66 88.58L57.69 88.43C58.93 82.74 57.61 76.82 54.08 72.18L52.25 69.78C60.73 68.89 68.02 66.1 74.01 61.43C75.15 60.55 76.23 59.6 77.26 58.59L81.11 63.11C84.89 67.54 90.4 70.09 96.22 70.09L96.38 70.09L101.48 75.19C102.12 75.83 102.96 76.16 103.81 76.16C104.65 76.16 105.49 75.83 106.13 75.19C107.42 73.91 107.42 71.83 106.13 70.54L105.68 70.09L106.71 70.09C108.52 70.09 110 68.62 110 66.8ZM46.2 63.53C43.33 63.53 40.31 63.31 37.14 62.88C26.78 61.49 20.57 66.01 18.38 68.02C12.75 73.19 9.48 80.13 7.61 85.77C5.93 79.62 5.64 71.08 12.65 63.49C18.08 57.62 25.63 54.44 33.85 54.44C35.3 54.44 36.76 54.54 38.24 54.74C50.98 56.46 61.2 53.35 68.2 45.86C68.29 45.77 68.38 45.68 68.47 45.57C68.5 45.54 68.52 45.51 68.54 45.48C72.01 41.63 74.66 36.66 76.4 30.65C76.63 29.83 76.54 28.96 76.15 28.21C76.12 28.16 73.57 22.93 76.93 16.67C80.02 10.9 88.81 4.91 92.91 6.99C92.91 6.99 92.91 6.99 92.91 6.99C94.64 7.86 95.84 10.98 96.04 15.11C96.24 19.27 95.41 23.97 93.99 26.81C91.91 30.94 87.39 32.34 85.91 32.79C85.12 33.04 83.65 33.49 83.15 35.24C77.74 54.04 65.33 63.53 46.2 63.53Z" fill="#FFC59E" fill-opacity="1.000000" fill-rule="nonzero"/>
</svg>
