<svg width="110.000000" height="97.000000" viewBox="0 0 110 97" fill="none" xmlns="http://www.w3.org/2000/svg" xmlns:xlink="http://www.w3.org/1999/xlink">
	<desc>
			Created with Pixso.
	</desc>
	<defs/>
	<path id="Vector" d="M54.78 64.45C54.01 64.45 53.25 64.51 52.5 64.61L45.53 49.2L57.7 21.89C61.6 13.99 58.45 4.33 50.46 0.34C49.67 -0.06 48.76 -0.11 47.94 0.18C47.11 0.47 46.44 1.09 46.08 1.89L35.11 26.15L24.13 1.89C23.77 1.09 23.1 0.47 22.27 0.18C21.45 -0.11 20.54 -0.06 19.75 0.33C11.75 4.34 8.61 14 12.51 21.89L24.69 49.18L17.75 64.53C17.21 64.48 16.66 64.45 16.11 64.45C7.22 64.45 0 71.68 0 80.56C0 89.45 7.22 96.67 16.11 96.67C24.99 96.67 32.22 89.45 32.22 80.56C32.22 80.1 32.2 79.65 32.16 79.21L35.12 72.55L38.67 80.49C38.67 80.52 38.67 80.54 38.67 80.56C38.67 89.45 45.9 96.67 54.78 96.67C63.66 96.67 70.89 89.45 70.89 80.56C70.89 71.68 63.66 64.45 54.78 64.45ZM18.37 19.2C18.35 19.16 18.33 19.12 18.31 19.07C16.42 15.29 17.26 10.96 19.89 8.15L31.57 33.97L28.24 41.32L18.37 19.2ZM16.11 90.23C10.78 90.23 6.44 85.89 6.44 80.56C6.44 75.23 10.78 70.89 16.11 70.89C21.44 70.89 25.78 75.23 25.78 80.56C25.78 85.89 21.44 90.23 16.11 90.23ZM28.87 70.75C27.54 69.01 25.86 67.56 23.94 66.48L50.32 8.15C52.96 10.98 53.78 15.31 51.9 19.07C51.88 19.12 51.86 19.16 51.84 19.2L28.87 70.75ZM41.62 71.29L38.65 64.64L42.02 57.07L46.42 66.79C44.53 67.95 42.89 69.48 41.62 71.29ZM54.78 90.23C49.45 90.23 45.11 85.89 45.11 80.56C45.11 75.23 49.45 70.89 54.78 70.89C60.11 70.89 64.45 75.23 64.45 80.56C64.45 85.89 60.11 90.23 54.78 90.23Z" fill="#FFC59E" fill-opacity="1.000000" fill-rule="nonzero"/>
	<path id="Vector" d="M100.33 0C97.9 0 82.98 0 80.99 0C79.21 0 77.77 1.44 77.77 3.22C77.77 5 79.21 6.44 80.99 6.44L90.66 6.44L90.66 12.89L80.99 12.89C79.21 12.89 77.77 14.33 77.77 16.11C77.77 17.89 79.21 19.33 80.99 19.33L90.66 19.33L90.66 25.78L80.99 25.78C79.21 25.78 77.77 27.22 77.77 29C77.77 30.78 79.21 32.22 80.99 32.22L90.66 32.22L90.66 38.67L80.99 38.67C79.21 38.67 77.77 40.11 77.77 41.89C77.77 43.67 79.21 45.11 80.99 45.11L90.66 45.11L90.66 51.56L80.99 51.56C79.21 51.56 77.77 53 77.77 54.78C77.77 56.56 79.21 58 80.99 58L90.66 58L90.66 64.45L80.99 64.45C79.21 64.45 77.77 65.89 77.77 67.67C77.77 69.45 79.21 70.89 80.99 70.89L90.66 70.89L90.66 77.34L80.99 77.34C79.21 77.34 77.77 78.78 77.77 80.56C77.77 82.34 79.21 83.78 80.99 83.78L90.66 83.78L90.66 90.23L80.99 90.23C79.21 90.23 77.77 91.67 77.77 93.45C77.77 95.23 79.21 96.67 80.99 96.67C82.82 96.67 97.68 96.67 100.33 96.67C105.66 96.67 110 92.34 110 87.01L110 9.66C110 4.33 105.66 0 100.33 0ZM103.55 87.01C103.55 88.78 102.1 90.23 100.33 90.23L97.1 90.23L97.1 6.44L100.33 6.44C102.1 6.44 103.55 7.89 103.55 9.66L103.55 87.01Z" fill="#FFC59E" fill-opacity="1.000000" fill-rule="nonzero"/>
</svg>
