<svg width="100.000000" height="110.000000" viewBox="0 0 100 110" fill="none" xmlns="http://www.w3.org/2000/svg" xmlns:xlink="http://www.w3.org/1999/xlink">
	<desc>
			Created with Pixso.
	</desc>
	<defs/>
	<path id="Vector" d="M96.04 1.78C95.58 0.85 94.7 0.2 93.68 0.04C92.66 -0.13 91.62 0.2 90.88 0.94C55.24 36.5 66.1 25.65 53.23 38.53L6.38 78.17C-1.67 84.98 -2.18 97.25 5.28 104.71C12.76 112.19 25.02 111.64 31.82 103.61L67.71 61.19C70.33 58.09 70.66 53.72 68.8 50.3L73.64 45.46L75.92 47.74C77.17 49 79.21 49 80.47 47.75L90.14 38.14C99.74 28.54 102.12 13.92 96.04 1.78ZM26.9 99.44C22.5 104.64 14.64 104.96 9.83 100.15C5.02 95.34 5.36 87.48 10.54 83.09L20.67 74.52L35.46 89.32L26.9 99.44ZM39.64 84.38L25.6 70.35L30.54 66.17L43.82 79.45L39.64 84.38ZM48 74.51L35.48 61.99L40.41 57.81L52.17 69.57L48 74.51ZM62.79 57.02L56.35 64.63L45.35 53.64L55.23 45.28L62.61 52.66C63.79 53.84 63.87 55.75 62.79 57.02ZM64.53 45.46L59.97 40.9L64.53 36.35C65.01 36.83 68.58 40.4 69.08 40.9L64.53 45.46ZM85.59 33.57L78.21 40.91L69.08 31.79L91.96 8.97C94.44 17.61 92.11 27.05 85.59 33.57Z" fill="#FFC59E" fill-opacity="1.000000" fill-rule="nonzero"/>
</svg>
