<svg width="110.000000" height="110.000000" viewBox="0 0 110 110" fill="none" xmlns="http://www.w3.org/2000/svg" xmlns:xlink="http://www.w3.org/1999/xlink">
	<desc>
			Created with Pixso.
	</desc>
	<defs/>
	<path id="Vector" d="M100.33 45.11L97.1 45.11L97.1 18.78C100.86 17.45 103.55 13.86 103.55 9.66C103.55 4.33 99.21 0 93.88 0L68.1 0C62.77 0 58.43 4.33 58.43 9.66C58.43 13.86 61.13 17.45 64.88 18.78L64.88 45.11L45.11 45.11L45.11 18.78C48.86 17.45 51.56 13.86 51.56 9.66C51.56 4.33 47.22 0 41.89 0L16.11 0C10.78 0 6.44 4.33 6.44 9.66C6.44 13.86 9.13 17.45 12.89 18.78L12.89 45.11L9.66 45.11C4.33 45.11 0 49.45 0 54.78L0 100.33C0 105.66 4.33 110 9.66 110L100.33 110C105.66 110 110 105.66 110 100.33L110 54.78C110 49.45 105.66 45.11 100.33 45.11ZM68.1 6.44L93.88 6.44C95.66 6.44 97.1 7.89 97.1 9.66C97.1 11.44 95.66 12.89 93.88 12.89C92.1 12.89 90.66 14.33 90.66 16.11L90.66 32.22L80.99 32.22C79.21 32.22 77.77 33.66 77.77 35.44C77.77 37.22 79.21 38.67 80.99 38.67L90.66 38.67L90.66 45.11L71.32 45.11L71.32 16.11C71.32 14.33 69.88 12.89 68.1 12.89C66.32 12.89 64.88 11.44 64.88 9.66C64.88 7.89 66.32 6.44 68.1 6.44ZM80.99 64.45L90.66 64.45L90.66 80.99C90.66 86.32 86.32 90.66 80.99 90.66C75.66 90.66 71.32 86.32 71.32 80.99L71.32 51.56L90.66 51.56L90.66 58L80.99 58C79.21 58 77.77 59.45 77.77 61.23C77.77 63 79.21 64.45 80.99 64.45ZM16.11 6.44L41.89 6.44C43.67 6.44 45.11 7.89 45.11 9.66C45.11 11.44 43.67 12.89 41.89 12.89C40.11 12.89 38.67 14.33 38.67 16.11L38.67 32.22L29 32.22C27.22 32.22 25.78 33.66 25.78 35.44C25.78 37.22 27.22 38.67 29 38.67L38.67 38.67L38.67 45.11L19.33 45.11L19.33 16.11C19.33 14.33 17.89 12.89 16.11 12.89C14.33 12.89 12.89 11.44 12.89 9.66C12.89 7.89 14.33 6.44 16.11 6.44ZM29 64.45L38.67 64.45L38.67 80.99C38.67 86.32 34.33 90.66 29 90.66C23.67 90.66 19.33 86.32 19.33 80.99L19.33 51.56L38.67 51.56L38.67 58L29 58C27.22 58 25.78 59.45 25.78 61.23C25.78 63 27.22 64.45 29 64.45ZM103.55 100.33C103.55 102.1 102.1 103.55 100.33 103.55L9.66 103.55C7.89 103.55 6.44 102.1 6.44 100.33L6.44 54.78C6.44 53 7.89 51.56 9.66 51.56L12.89 51.56L12.89 80.99C12.89 89.88 20.11 97.1 29 97.1C37.88 97.1 45.11 89.88 45.11 80.99L45.11 51.56L64.88 51.56L64.88 80.99C64.88 89.88 72.11 97.1 80.99 97.1C89.88 97.1 97.1 89.88 97.1 80.99L97.1 51.56L100.33 51.56C102.1 51.56 103.55 53 103.55 54.78L103.55 100.33Z" fill="#FFC59E" fill-opacity="1.000000" fill-rule="nonzero"/>
</svg>
