<svg width="110.000000" height="110.000000" viewBox="0 0 110 110" fill="none" xmlns="http://www.w3.org/2000/svg" xmlns:xlink="http://www.w3.org/1999/xlink">
	<desc>
			Created with Pixso.
	</desc>
	<defs/>
	<path id="Vector" d="M83.99 34.95C83.96 33.45 83.82 31.98 83.58 30.55C91.24 35.81 99.79 33.04 102.73 25.44C106.34 16.16 97.89 6.26 87.65 2.05C78.61 -1.65 68.64 -0.68 63.37 7.68C60.72 6.88 57.9 6.45 54.99 6.45C52.08 6.45 49.27 6.88 46.61 7.68C41.34 -0.68 31.37 -1.66 22.33 2.05C12.09 6.26 3.65 16.16 7.25 25.44C10.19 33.02 18.73 35.83 26.41 30.55C26.16 31.98 26.02 33.45 26 34.95C16.36 36.93 0 41.73 0 51.56C0 53.68 0.79 55.61 2.08 57.3C2.08 57.3 2.09 57.31 2.09 57.3C2.09 57.31 2.09 57.31 2.09 57.31L25.99 88.53L25.99 100.33C25.99 101.5 26.62 102.57 27.64 103.14C28.14 103.42 40.09 110 54.99 110C69.9 110 81.84 103.42 82.34 103.14C83.36 102.57 83.99 101.5 83.99 100.33L83.99 88.53C84.03 88.49 107.89 57.31 107.89 57.31C109.18 55.65 109.99 53.67 109.99 51.56C109.99 41.74 93.64 36.93 83.99 34.95ZM85.2 8.02C92.43 10.98 98.78 17.81 96.72 23.11C94.95 27.7 89.72 28.32 85 23.3L84.95 23.25C82 20.12 78.36 16.26 75.06 14.53C73.36 12.9 71.46 11.47 69.4 10.29C74.1 4.15 82.5 6.91 85.2 8.02ZM54.99 12.89C67.43 12.89 77.55 23.01 77.55 35.45L77.55 48.34C77.55 54.04 75.45 59.42 71.61 63.59C67.46 64.04 62.97 64.33 58.21 64.42L58.21 56.12L63.71 50.62C64.64 49.7 64.91 48.31 64.41 47.11C63.91 45.9 62.74 45.12 61.44 45.12L48.55 45.12C47.24 45.12 46.07 45.9 45.57 47.11C45.07 48.31 45.35 49.7 46.27 50.62L51.77 56.12L51.77 64.42C46.97 64.33 42.45 64.03 38.37 63.59C34.54 59.42 32.43 54.04 32.43 48.34L32.43 35.45C32.43 23.01 42.55 12.89 54.99 12.89ZM25.03 23.26L24.99 23.3C20.26 28.32 15.04 27.7 13.26 23.11C11.18 17.74 17.68 10.93 24.78 8.02C27.48 6.91 35.88 4.15 40.58 10.29C38.52 11.47 36.62 12.9 34.92 14.53C31.62 16.26 27.98 20.12 25.03 23.26ZM6.69 52.57C6.52 52.21 6.44 51.88 6.44 51.56C6.44 49.22 11.83 44.64 25.99 41.53L25.99 48.34C25.99 53.32 27.23 58.1 29.57 62.33C23.71 61.27 9.21 57.87 6.69 52.57ZM16.71 65.8C23.21 67.92 31.3 69.46 40.33 70.26L43.45 89.25C37.38 87.8 32.86 85.68 31.34 84.91L16.71 65.8ZM77.55 98.34C74.02 99.99 65.22 103.55 54.99 103.55C44.81 103.55 35.98 99.98 32.43 98.33L32.43 92.48C37.35 94.48 45.58 97.11 54.99 97.11C64.4 97.11 72.63 94.48 77.55 92.48L77.55 98.34ZM78.64 84.92C76.27 86.12 66.54 90.66 54.99 90.66C53.34 90.66 51.73 90.57 50.17 90.4L46.94 70.71C49.57 70.83 52.25 70.9 54.99 70.9C69.92 70.9 83.41 69.01 93.27 65.8L78.64 84.92ZM102.78 53.38C100.22 56.72 92.22 60.18 80.41 62.33C82.75 58.1 83.99 53.32 83.99 48.34L83.99 41.53C98.16 44.64 103.54 49.22 103.54 51.56C103.54 52 103.39 52.59 102.78 53.38Z" fill="#FFC59E" fill-opacity="1.000000" fill-rule="nonzero"/>
</svg>
