<svg width="111.000000" height="110.000000" viewBox="0 0 111 110" fill="none" xmlns="http://www.w3.org/2000/svg" xmlns:xlink="http://www.w3.org/1999/xlink">
	<desc>
			Created with Pixso.
	</desc>
	<defs/>
	<path id="Vector" d="M109.05 0.94C107.79 -0.32 105.75 -0.32 104.49 0.94L89.42 16.01C85.83 14.3 81.39 14.93 78.42 17.9L71.19 25.13C67.6 23.42 63.16 24.04 60.19 27.02C59 28.2 30.36 56.84 28.81 58.4C25.07 56.88 21.05 56.09 16.9 56.09C16.9 56.09 16.89 56.09 16.89 56.09C11.56 56.09 7.22 60.42 7.22 65.75C7.22 71.09 11.56 75.42 16.89 75.42C18.08 75.42 19.25 75.6 20.38 75.93L7.78 88.54L5.5 86.26C4.24 85 2.2 85 0.94 86.26C-0.32 87.52 -0.32 89.56 0.94 90.82C2.86 92.74 17.2 107.08 19.17 109.05C20.43 110.31 22.47 110.31 23.73 109.05C24.99 107.79 24.99 105.75 23.73 104.49L21.45 102.22L34.06 89.61C34.39 90.74 34.57 91.91 34.57 93.1C34.57 95.68 35.57 98.11 37.4 99.94C39.22 101.76 41.65 102.77 44.24 102.77C49.57 102.77 53.9 98.43 53.9 93.1C53.9 88.95 53.11 84.92 51.59 81.18C53.22 79.55 81.39 51.39 82.97 49.8C85.96 46.82 86.58 42.38 84.87 38.8L92.09 31.57C95.08 28.59 95.69 24.15 93.98 20.57L109.05 5.5C110.31 4.24 110.31 2.2 109.05 0.94ZM16.89 97.66L12.33 93.1L26.01 79.43L30.56 83.99L16.89 97.66ZM44.24 96.32C42.45 96.32 41.01 94.88 41.01 93.1C41.01 88.05 38.92 83.23 35.51 79.82L30.17 74.48C26.77 71.08 21.95 68.98 16.89 68.98C15.11 68.98 13.67 67.53 13.67 65.75C13.67 63.98 15.11 62.53 16.89 62.53C16.9 62.53 16.9 62.53 16.9 62.53C23.63 62.53 29.97 65.16 34.73 69.92L40.07 75.26C44.84 80.03 47.46 86.36 47.46 93.1C47.46 94.88 46.01 96.32 44.24 96.32ZM57.91 65.75L55.63 63.48C54.37 62.22 52.33 62.22 51.07 63.48C49.81 64.73 49.81 66.77 51.07 68.03L53.35 70.31L48.41 75.26C47.3 73.64 46.04 72.12 44.63 70.7L39.29 65.36C37.87 63.95 36.35 62.69 34.74 61.58L48.79 47.52L62.47 61.2L57.91 65.75ZM78.42 45.25L76.14 47.52L73.86 45.25C72.6 43.99 70.56 43.99 69.3 45.25C68.04 46.5 68.04 48.54 69.3 49.8L71.58 52.08L67.02 56.64L53.35 42.97L64.75 31.57C66 30.32 68.05 30.32 69.3 31.57L78.42 40.69C79.68 41.95 79.68 43.99 78.42 45.25ZM87.53 27.02L80.7 33.85L76.14 29.29L82.97 22.46C84.23 21.2 86.28 21.2 87.53 22.46C88.79 23.72 88.79 25.76 87.53 27.02Z" fill="#FFC59E" fill-opacity="1.000000" fill-rule="nonzero"/>
</svg>
