<svg width="110.000000" height="110.000000" viewBox="0 0 110 110" fill="none" xmlns="http://www.w3.org/2000/svg" xmlns:xlink="http://www.w3.org/1999/xlink">
	<desc>
			Created with Pixso.
	</desc>
	<defs/>
	<path id="Vector" d="M110 22.77L110 3.22C110 1.44 108.55 0 106.77 0C94.81 0 82.57 3.45 72.05 9.77C71.97 9.73 71.89 9.69 71.81 9.66C66.44 7.67 60.78 6.66 55 6.66C49.06 6.66 43.3 7.72 37.91 9.75C27.4 3.45 15.15 0 3.22 0C1.44 0 0 1.44 0 3.22L0 22.77C0 29.56 3.3 36.17 8.85 40.52C7.41 45.15 6.66 50.01 6.66 55C6.66 67.52 11.54 79.72 20.1 88.66C22.27 97.71 30.15 103.55 38.88 103.55C39.91 103.55 40.93 103.47 41.92 103.31C44.92 107.49 49.73 110 55 110C60.26 110 65.07 107.49 68.07 103.31C69.06 103.47 70.08 103.55 71.11 103.55C79.91 103.55 87.7 97.67 89.88 88.67C98.44 79.73 103.34 67.52 103.34 55C103.34 51.46 102.95 47.96 102.2 44.56C108.36 39.72 110 28.22 110 22.77ZM6.44 22.77L6.44 6.53C14.75 7.01 23.14 9.3 30.75 13.15C22.58 17.91 15.65 25.18 11.35 34.15C8.25 31.09 6.44 26.97 6.44 22.77ZM55 103.55C52.52 103.55 50.21 102.62 48.46 101.01C51.05 99.53 53.3 97.47 55 94.89C56.69 97.46 58.94 99.53 61.53 101.01C59.78 102.62 57.47 103.55 55 103.55ZM51.98 73.2C52.44 71.98 53.62 71.11 55 71.11C56.37 71.11 57.55 71.98 58.01 73.2L55 76.22L51.98 73.2ZM83.62 87.16C82.13 93.32 76.85 97.1 71.11 97.1C63.21 97.1 57.14 90.11 58.37 81.95L63.72 76.61C64.32 76 64.66 75.19 64.66 74.33C64.66 69 60.33 64.66 55 64.66C49.66 64.66 45.33 69 45.33 74.33C45.33 75.19 45.67 76 46.27 76.61L51.62 81.95C52.86 90.13 46.76 97.1 38.88 97.1C31.66 97.1 25.99 91.27 25.99 84C25.99 80.56 27.33 77.32 29.77 74.88C31.03 73.62 31.03 71.58 29.77 70.33C28.51 69.07 26.47 69.07 25.21 70.33C22.86 72.68 21.19 75.53 20.3 78.65C15.67 71.74 13.1 63.45 13.1 55C13.1 41.56 19.46 29.58 29.33 21.91L83.85 85.97C83.7 86.35 83.62 86.76 83.62 87.16ZM96.23 62.41L82.74 46.47C81.59 45.11 79.56 44.94 78.2 46.09C76.84 47.24 76.67 49.27 77.82 50.63L94.16 69.94C92.68 73.9 90.62 77.62 88.04 80.95L34.75 18.33C38.44 16.28 42.48 14.77 46.75 13.92L77.82 50.63C78.97 51.99 81 52.16 82.36 51.01C83.72 49.86 83.89 47.83 82.74 46.47L54.51 13.11C59.51 13.05 64.34 13.86 68.92 15.47C69.96 16.51 93.48 40.03 94.52 41.07C96.09 45.53 96.89 50.21 96.89 55C96.89 57.49 96.66 59.97 96.23 62.41ZM99.96 37.47C99.85 37.31 99.72 37.16 99.59 37.02L76.94 14.38C85.14 9.78 94.38 7.05 103.55 6.53L103.55 22.77C103.55 27.68 102.21 33.91 99.96 37.47Z" fill="#FFC59E" fill-opacity="1.000000" fill-rule="nonzero"/>
	<path id="Vector" d="M35.66 45.33C30.33 45.33 25.99 49.66 25.99 55C25.99 60.33 30.33 64.66 35.66 64.66C40.99 64.66 45.33 60.33 45.33 55C45.33 49.66 40.99 45.33 35.66 45.33ZM35.66 58.22C33.88 58.22 32.44 56.77 32.44 55C32.44 53.22 33.88 51.77 35.66 51.77C37.44 51.77 38.88 53.22 38.88 55C38.88 56.77 37.44 58.22 35.66 58.22Z" fill="#FFC59E" fill-opacity="1.000000" fill-rule="nonzero"/>
</svg>
