<svg width="110.000000" height="110.000000" viewBox="0 0 110 110" fill="none" xmlns="http://www.w3.org/2000/svg" xmlns:xlink="http://www.w3.org/1999/xlink">
	<desc>
			Created with Pixso.
	</desc>
	<defs/>
	<path id="Vector" d="M103.88 19.33C103.87 19.33 103.87 19.32 103.87 19.32C103.87 19.32 103.87 19.32 103.86 19.32C103.86 19.31 103.86 19.31 103.85 19.31C103.85 19.31 103.85 19.3 103.85 19.3C103.85 19.3 103.85 19.3 103.85 19.3C103.84 19.3 103.84 19.29 103.84 19.29C103.84 19.29 103.84 19.29 103.84 19.29C101.34 16.8 98.33 15.14 95.15 14.3C94.28 11.01 92.59 8.05 90.2 5.65C82.66 -1.89 70.39 -1.89 62.86 5.65C55.97 12.54 55.48 23.11 60.77 30.52L49.94 41.35C49.18 42.11 48.85 43.2 49.06 44.26L51.34 55.65C51.59 56.92 52.59 57.92 53.86 58.18L65.25 60.45C66.32 60.67 67.41 60.33 68.16 59.57L78.99 48.75C86.47 54.09 97.07 53.48 103.86 46.66C111.4 39.12 111.4 26.87 103.88 19.33ZM99.31 42.1C99.28 42.13 99.25 42.16 99.22 42.19C99.22 42.19 99.21 42.19 99.21 42.19C93.63 47.67 85.19 46.47 81.18 42.2C81.14 42.15 81.12 42.13 81.08 42.1C81.08 42.1 81.08 42.09 81.08 42.09C80.48 41.5 79.68 41.15 78.77 41.16C78.76 41.16 78.75 41.16 78.75 41.16C77.88 41.17 77.09 41.54 76.57 42.06C76.57 42.06 64.83 53.8 64.83 53.8L57.23 52.28L55.71 44.68L67.41 32.99C68.02 32.38 68.36 31.56 68.36 30.71C68.36 29.85 68.02 29.03 67.41 28.43C62.38 23.39 62.38 15.24 67.41 10.2C72.44 5.18 80.61 5.18 85.64 10.2C86.68 11.24 87.52 12.45 88.13 13.77C83.89 14.23 79.77 16.07 76.53 19.32C75.27 20.58 75.27 22.62 76.53 23.87C77.78 25.13 79.82 25.13 81.08 23.87C86.36 18.59 94.61 19.19 99.3 23.86C99.3 23.86 99.3 23.86 99.3 23.86C99.3 23.87 99.3 23.87 99.3 23.87C99.3 23.87 99.31 23.87 99.31 23.87C104.33 28.9 104.33 37.07 99.31 42.1Z" fill="#FFC59E" fill-opacity="1.000000" fill-rule="nonzero"/>
	<path id="Vector" d="M39.03 34.51L34.47 29.96C33.21 28.7 31.17 28.7 29.91 29.96C28.65 31.21 28.65 33.25 29.91 34.51L34.47 39.07C35.73 40.33 37.77 40.33 39.03 39.07C40.28 37.81 40.28 35.77 39.03 34.51Z" fill="#FFC59E" fill-opacity="1.000000" fill-rule="nonzero"/>
	<path id="Vector" d="M36.75 42.56L27.63 42.56C25.85 42.56 24.41 44 24.41 45.78C24.41 47.56 25.85 49 27.63 49L36.75 49C38.53 49 39.97 47.56 39.97 45.78C39.97 44 38.53 42.56 36.75 42.56Z" fill="#FFC59E" fill-opacity="1.000000" fill-rule="nonzero"/>
	<path id="Vector" d="M45.74 24.46C43.96 24.46 42.51 25.9 42.51 27.68L42.51 36.79C42.51 38.57 43.96 40.01 45.74 40.01C47.52 40.01 48.96 38.57 48.96 36.79L48.96 27.68C48.96 25.9 47.52 24.46 45.74 24.46Z" fill="#FFC59E" fill-opacity="1.000000" fill-rule="nonzero"/>
	<path id="Vector" d="M80.03 75.52L75.48 70.96C74.22 69.71 72.18 69.71 70.92 70.96C69.66 72.22 69.66 74.26 70.92 75.52L75.48 80.08C76.73 81.33 78.78 81.33 80.03 80.08C81.29 78.82 81.29 76.78 80.03 75.52Z" fill="#FFC59E" fill-opacity="1.000000" fill-rule="nonzero"/>
	<path id="Vector" d="M63.99 70.02C62.21 70.02 60.77 71.46 60.77 73.24L60.77 82.36C60.77 84.14 62.21 85.58 63.99 85.58C65.77 85.58 67.22 84.14 67.22 82.36L67.22 73.24C67.22 71.46 65.77 70.02 63.99 70.02Z" fill="#FFC59E" fill-opacity="1.000000" fill-rule="nonzero"/>
	<path id="Vector" d="M82.31 60.82L73.2 60.82C71.42 60.82 69.98 62.26 69.98 64.04C69.98 65.82 71.42 67.26 73.2 67.26L82.31 67.26C84.09 67.26 85.53 65.82 85.53 64.04C85.53 62.26 84.09 60.82 82.31 60.82Z" fill="#FFC59E" fill-opacity="1.000000" fill-rule="nonzero"/>
	<path id="Vector" d="M60.34 65.48C59.99 64.34 59.05 63.48 57.88 63.25L48.6 61.39L46.74 52.11C46.51 50.94 45.66 50 44.52 49.66C43.39 49.31 42.15 49.62 41.31 50.45L30.53 61.17C22.98 55.8 12.41 56.49 5.65 63.26C-1.89 70.79 -1.89 83.06 5.65 90.59C8.05 93 11.01 94.68 14.31 95.55C18.11 109.97 36.16 114.76 46.66 104.27C53.43 97.49 54.14 86.95 48.75 79.4L59.52 68.69C60.37 67.85 60.68 66.62 60.34 65.48ZM42.11 76.92C42.11 76.92 42.1 76.92 42.1 76.92C42.1 76.92 42.1 76.92 42.1 76.93C40.85 78.17 40.84 80.22 42.1 81.48C47.14 86.53 47.12 94.68 42.1 99.71C34.61 107.2 21.75 102.97 20.28 92.38C19.67 87.96 21.21 84.15 23.87 81.48C25.13 80.22 25.13 78.18 23.87 76.93C22.62 75.67 20.58 75.67 19.32 76.93C16.07 80.17 14.23 84.29 13.78 88.53C12.45 87.91 11.25 87.08 10.2 86.04C5.18 81.01 5.18 72.84 10.2 67.81C15.23 62.79 23.41 62.79 28.43 67.81C29.69 69.07 31.72 69.07 32.98 67.82L41.6 59.25L42.7 64.76C42.96 66.04 43.95 67.03 45.23 67.29L50.69 68.38L42.11 76.92Z" fill="#FFC59E" fill-opacity="1.000000" fill-rule="nonzero"/>
</svg>
