<svg width="88.000000" height="91.000000" viewBox="0 0 88 91" fill="none" xmlns="http://www.w3.org/2000/svg" xmlns:xlink="http://www.w3.org/1999/xlink">
	<desc>
			Created with Pixso.
	</desc>
	<defs/>
	<path d="M46.76 16.31C45.74 18.96 45.19 21.77 45.19 24.09C45.19 26.49 45.71 29.09 46.75 31.26C48.11 34.09 50.34 36.2 53.44 36.2C54.82 36.2 56.09 35.81 57.25 35.14C59.9 33.61 61.95 30.6 63.28 27.32C64.39 24.55 64.99 21.58 64.99 19.15C64.99 13.65 62.24 7.04 56.74 7.04C52.12 7.04 48.64 11.43 46.76 16.31ZM43.16 8.1Q46.75 2.68 51.65 0.91Q54.04 0.04 56.74 0.04Q59.91 0.04 62.52 1.26Q66.36 3.05 68.97 7.48Q69.56 8.49 70.03 9.55Q71.99 13.91 71.99 19.15Q71.99 21.15 71.71 23.12Q71.66 23.45 71.61 23.78Q72.41 23.7 73.24 23.7Q76.1 23.7 78.49 24.76Q81.87 26.26 84.29 29.91Q85.14 31.18 85.76 32.56Q87.39 36.21 87.39 40.59Q87.39 43.24 86.9 45.79Q85.9 50.86 82.94 55.54Q78.91 61.91 73.35 63.82Q73.17 63.89 72.98 63.95Q75.84 70.21 75.84 76.34Q75.84 81.04 73.67 84.28Q72.08 86.66 69.32 88.25Q65.43 90.5 59.49 90.5Q55.02 90.5 48.19 87.69Q44.3 86.09 42.99 86.09Q41.35 86.09 37.13 87.74Q30.08 90.5 25.39 90.5Q19.47 90.5 15.56 87.68Q15.53 87.66 15.5 87.64Q13.54 86.21 12.29 84.31Q10.14 81.03 10.14 76.34Q10.14 70.1 13.1 63.73Q7.87 61.78 3.86 55.63Q0.12 49.9 -0.65 43.8Q-0.86 42.21 -0.86 40.59Q-0.86 34.76 1.7 30.45Q1.82 30.25 1.94 30.06Q4.04 26.72 7.07 25.13Q9.8 23.7 13.29 23.7Q13.74 23.7 14.18 23.72Q13.81 21.06 14 18.33Q14.04 13.24 15.96 9Q16.43 7.94 17.02 6.93Q19.63 2.5 23.47 0.71Q26.07 -0.5 29.24 -0.5Q31.99 -0.5 34.41 0.39Q39.51 2.26 43.16 8.1ZM20.99 18.59C20.8 21.07 21.21 23.93 22.13 26.62C23.48 30.56 25.96 34.13 29.34 35.55C30.33 35.96 31.4 36.2 32.54 36.2C35.65 36.2 37.88 34.09 39.24 31.26C40.27 29.09 40.79 26.49 40.79 24.09C40.79 21.67 40.29 18.87 39.34 16.22C37.49 11.06 33.97 6.5 29.24 6.5C23.74 6.5 20.99 13.09 20.99 18.59ZM42.99 38.29Q42.37 39.05 41.68 39.69Q42 39.67 42.33 39.66Q42.66 39.65 42.99 39.65Q43.33 39.65 43.66 39.66Q43.98 39.67 44.31 39.69Q43.62 39.05 42.99 38.29ZM54.44 51.54C50.65 48.55 46.62 46.65 42.99 46.65C39.57 46.65 35.78 48.35 32.17 51.06C27.71 54.42 23.54 59.32 20.73 64.45C18.51 68.49 17.14 72.67 17.14 76.34C17.14 81.84 20.99 83.5 25.39 83.5C31.99 83.5 36.94 79.09 42.99 79.09C48.49 79.09 53.44 83.5 59.49 83.5C63.89 83.5 68.84 82.4 68.84 76.34C68.84 72.64 67.45 68.41 65.2 64.33C62.52 59.49 58.63 54.85 54.44 51.54ZM25.39 47.48C25.35 45.34 24.83 42.97 23.95 40.7C22.39 36.71 19.71 33.04 16.52 31.48C15.49 30.98 14.41 30.7 13.29 30.7C8.34 30.7 6.14 35.65 6.14 40.59C6.14 47.18 10.81 56.11 16.71 57.47C17.21 57.58 17.73 57.65 18.24 57.65C23.19 57.65 25.39 52.7 25.39 47.75C25.39 47.66 25.39 47.57 25.39 47.48ZM61.15 47.99C61.22 52.86 63.43 57.65 68.29 57.65C68.65 57.65 69 57.62 69.35 57.57C75.93 56.66 80.39 47.39 80.39 40.59C80.39 35.65 77.64 30.7 73.24 30.7C71.66 30.7 70.19 31.18 68.85 32.01C66.22 33.65 64.12 36.64 62.78 39.92C61.73 42.51 61.14 45.29 61.14 47.75C61.14 47.83 61.15 47.91 61.15 47.99Z" fill="#FFC59E" fill-opacity="1.000000" fill-rule="evenodd"/>
</svg>
