<svg width="110.000000" height="110.000000" viewBox="0 0 110 110" fill="none" xmlns="http://www.w3.org/2000/svg" xmlns:xlink="http://www.w3.org/1999/xlink">
	<desc>
			Created with Pixso.
	</desc>
	<defs/>
	<path id="Vector" d="M95.25 55.75L101.49 49.51C112.83 38.17 112.83 19.83 101.49 8.5C90.16 -2.84 71.82 -2.84 60.48 8.5C58.06 10.91 10.69 58.29 8.5 60.48C-2.84 71.82 -2.84 90.16 8.5 101.49C19.83 112.83 38.17 112.83 49.51 101.49L55.75 95.25C60.74 104.05 70.18 109.99 80.99 109.99C96.98 109.99 109.99 96.98 109.99 80.99C109.99 70.18 104.05 60.74 95.25 55.75ZM51.99 80.99C51.99 83.7 52.36 86.33 53.06 88.83L44.95 96.94C36.14 105.75 21.87 105.75 13.05 96.94C4.24 88.12 4.24 73.85 13.05 65.04L36.57 41.52L58.16 63.12C54.3 68.04 51.99 74.25 51.99 80.99ZM77.77 103.31C66.85 101.74 58.43 92.33 58.43 80.99C58.43 69.64 66.85 60.23 77.77 58.66L77.77 103.31ZM62.68 58.52L41.13 36.96L65.04 13.05C73.85 4.24 88.12 4.24 96.94 13.05C105.75 21.87 105.75 36.14 96.94 44.95L88.82 53.06C86.33 52.36 83.7 51.99 80.99 51.99C74.05 51.99 67.68 54.44 62.68 58.52ZM84.21 103.31L84.21 58.66C95.13 60.23 103.54 69.64 103.54 80.99C103.54 92.33 95.13 101.74 84.21 103.31Z" fill="#FFC59E" fill-opacity="1.000000" fill-rule="nonzero"/>
	<path id="Vector" d="" fill="#FFC59E" fill-opacity="1.000000" fill-rule="evenodd"/>
</svg>
