<svg width="131.000000" height="92.000000" viewBox="0 0 131 92" fill="none" xmlns="http://www.w3.org/2000/svg" xmlns:xlink="http://www.w3.org/1999/xlink">
	<desc>
			Created with Pixso.
	</desc>
	<defs/>
	<path d="M120.16 0L104.39 0C100.04 0 96.27 2.58 94.56 6.3C91.76 5.65 88.75 5.32 85.58 5.32C82.4 5.32 79.39 5.65 76.6 6.3C74.88 2.58 71.12 0 66.76 0L50.99 0C45.02 0 40.16 4.85 40.16 10.83C40.16 13.02 40.82 15.28 41.98 17.01L48.82 27.28C49.92 28.93 51.49 30.23 53.29 31.06C49.94 44.49 50.98 67.15 50.98 66.71C50.98 76.98 59.34 85.33 69.61 85.33C71.29 85.33 72.92 85.11 74.47 84.69C76.93 88.44 81.14 90.83 85.58 90.83C90.01 90.83 94.22 88.44 96.68 84.69C98.23 85.11 99.86 85.33 101.54 85.33C111.82 85.33 120.17 76.98 120.17 66.71C120.17 53.15 120.82 41.89 117.89 31.05C119.68 30.21 121.24 28.92 122.33 27.28L129.18 17.01C130.33 15.28 131 13.02 131 10.83C131 4.85 126.14 0 120.16 0ZM53.25 24.33L46.4 14.06C45.83 13.21 45.48 11.97 45.48 10.83C45.48 7.79 47.95 5.32 50.99 5.32L66.76 5.32C69.8 5.32 72.27 7.79 72.27 10.83C72.27 11.97 71.91 13.21 71.34 14.06L64.5 24.33C63.47 25.87 61.76 26.79 59.91 26.79L58.01 26.79C56.11 26.79 54.25 25.82 53.25 24.33ZM85.58 85.51C83.23 85.51 80.97 84.36 79.46 82.51C81.95 80.95 84.05 78.81 85.58 76.29C87.1 78.81 89.2 80.95 91.69 82.51C90.18 84.36 87.93 85.51 85.58 85.51ZM83.08 60.45C83.46 59.44 84.44 58.72 85.58 58.72C86.71 58.72 87.69 59.44 88.07 60.45L85.58 62.94L83.08 60.45ZM114.85 66.71C114.85 74.04 108.88 80.01 101.54 80.01C94.56 80.01 88.82 74.61 88.28 67.77L92.78 63.26C93.28 62.76 93.56 62.09 93.56 61.38C93.56 56.98 89.98 53.4 85.58 53.4C81.17 53.4 77.59 56.98 77.59 61.38C77.59 62.09 77.87 62.76 78.37 63.26L82.87 67.77C82.33 74.61 76.59 80.01 69.61 80.01C62.27 80.01 56.3 74.04 56.3 66.71C56.3 66.02 55.31 44.67 58.52 32.11L59.91 32.11C63.54 32.11 66.91 30.3 68.93 27.28L75.77 17.01C76.8 15.47 77.44 13.5 77.57 11.54C80.03 10.94 82.72 10.64 85.58 10.64C88.43 10.64 91.12 10.94 93.58 11.54C93.71 13.5 94.35 15.47 95.38 17.01L102.23 27.28C102.7 28 103.25 28.64 103.86 29.21C101.7 27.68 99.06 26.79 96.22 26.79C88.88 26.79 82.91 32.75 82.91 40.09C82.91 47.43 88.88 53.4 96.22 53.4C103.56 53.4 109.53 47.43 109.53 40.09C109.53 36.19 107.84 32.68 105.16 30.24C106.93 31.44 109.03 32.11 111.24 32.11L112.66 32.11C115.49 42.23 114.85 52.83 114.85 66.71ZM104.21 40.09C104.21 44.49 100.62 48.08 96.22 48.08C91.82 48.08 88.24 44.49 88.24 40.09C88.24 35.69 91.82 32.11 96.22 32.11C100.62 32.11 104.21 35.69 104.21 40.09ZM124.75 14.06L117.9 24.33C116.91 25.82 115.04 26.79 113.14 26.79L111.24 26.79C109.39 26.79 107.68 25.87 106.65 24.33C106.65 24.33 106.65 24.33 106.65 24.33L99.81 14.06C99.24 13.21 98.88 11.97 98.88 10.83C98.88 7.79 101.35 5.32 104.39 5.32L120.16 5.32C123.2 5.32 125.67 7.79 125.67 10.83C125.67 11.97 125.32 13.21 124.75 14.06Z" fill="#FFC59E" fill-opacity="1.000000" fill-rule="nonzero"/>
	<path d="M77.59 40.09C77.59 41.56 76.4 42.75 74.93 42.75C73.46 42.75 72.27 41.56 72.27 40.09C72.27 38.62 73.46 37.43 74.93 37.43C76.4 37.43 77.59 38.62 77.59 40.09Z" fill="#FFC59E" fill-opacity="1.000000" fill-rule="evenodd"/>
	<path d="M98.88 40.09C98.88 41.56 97.69 42.75 96.22 42.75C94.75 42.75 93.56 41.56 93.56 40.09C93.56 38.62 94.75 37.43 96.22 37.43C97.69 37.43 98.88 38.62 98.88 40.09Z" fill="#FFC59E" fill-opacity="1.000000" fill-rule="evenodd"/>
	<path d="M42.07 43.06L33.78 43.06C31.49 43.06 29.51 44.42 28.6 46.37C27.13 46.03 25.55 45.86 23.88 45.86C22.21 45.86 20.63 46.03 19.16 46.37C18.26 44.42 16.28 43.06 13.99 43.06L5.69 43.06C2.55 43.06 0 45.62 0 48.76C0 49.91 0.34 51.1 0.95 52.01L4.55 57.41C5.13 58.28 5.95 58.96 6.9 59.4C5.14 66.46 5.69 78.38 5.69 78.14C5.69 83.55 10.08 87.94 15.48 87.94C16.37 87.94 17.23 87.82 18.04 87.6C19.33 89.58 21.55 90.83 23.88 90.83C26.22 90.83 28.43 89.58 29.72 87.6C30.54 87.82 31.4 87.94 32.28 87.94C37.68 87.94 42.08 83.55 42.08 78.14C42.08 71.01 42.42 65.09 40.88 59.39C41.82 58.95 42.64 58.27 43.21 57.41L46.81 52.01C47.42 51.1 47.77 49.91 47.77 48.76C47.77 45.62 45.21 43.06 42.07 43.06ZM6.88 55.86L3.28 50.46C2.98 50.01 2.79 49.36 2.79 48.76C2.79 47.16 4.09 45.86 5.69 45.86L13.99 45.86C15.58 45.86 16.88 47.16 16.88 48.76C16.88 49.36 16.7 50.01 16.4 50.46L12.8 55.86C12.26 56.67 11.36 57.15 10.39 57.15L9.39 57.15C8.39 57.15 7.4 56.64 6.88 55.86ZM23.88 88.03C22.65 88.03 21.46 87.43 20.66 86.46C21.98 85.63 23.08 84.51 23.88 83.19C24.68 84.51 25.79 85.63 27.1 86.46C26.3 87.43 25.12 88.03 23.88 88.03ZM22.57 74.85C22.77 74.32 23.28 73.95 23.88 73.95C24.48 73.95 24.99 74.32 25.19 74.85L23.88 76.16L22.57 74.85ZM39.28 78.14C39.28 82 36.14 85.14 32.28 85.14C28.61 85.14 25.59 82.3 25.3 78.7L27.67 76.33C27.93 76.07 28.08 75.72 28.08 75.34C28.08 73.03 26.2 71.15 23.88 71.15C21.57 71.15 19.68 73.03 19.68 75.34C19.68 75.72 19.83 76.07 20.09 76.33L22.46 78.7C22.18 82.3 19.16 85.14 15.48 85.14C11.63 85.14 8.49 82 8.49 78.14C8.49 77.79 7.96 66.55 9.65 59.95L10.39 59.95C12.29 59.95 14.07 59 15.12 57.41L18.73 52.01C19.27 51.2 19.6 50.16 19.67 49.13C20.97 48.82 22.38 48.66 23.88 48.66C25.38 48.66 26.8 48.82 28.09 49.13C28.16 50.16 28.5 51.2 29.04 52.01L32.64 57.41C32.89 57.79 33.18 58.12 33.5 58.42C32.36 57.62 30.98 57.15 29.48 57.15C25.62 57.15 22.48 60.29 22.48 64.15C22.48 68.01 25.62 71.15 29.48 71.15C33.34 71.15 36.48 68.01 36.48 64.15C36.48 62.1 35.59 60.25 34.18 58.97C35.11 59.6 36.22 59.95 37.38 59.95L38.13 59.95C39.61 65.27 39.28 70.85 39.28 78.14ZM33.68 64.15C33.68 66.46 31.8 68.35 29.48 68.35C27.16 68.35 25.28 66.46 25.28 64.15C25.28 61.83 27.16 59.95 29.48 59.95C31.8 59.95 33.68 61.83 33.68 64.15ZM44.48 50.46L40.88 55.86C40.36 56.64 39.38 57.15 38.38 57.15L37.38 57.15C36.41 57.15 35.51 56.67 34.97 55.86L31.37 50.46C31.07 50.01 30.88 49.36 30.88 48.76C30.88 47.16 32.18 45.86 33.78 45.86L42.07 45.86C43.67 45.86 44.97 47.16 44.97 48.76C44.97 49.36 44.78 50.01 44.48 50.46Z" fill="#FFC59E" fill-opacity="1.000000" fill-rule="nonzero"/>
	<path d="M33.78 43.06C31.49 43.06 29.51 44.42 28.6 46.37C27.13 46.03 25.55 45.86 23.88 45.86C22.21 45.86 20.63 46.03 19.16 46.37C18.26 44.42 16.28 43.06 13.99 43.06L5.69 43.06C2.55 43.06 0 45.62 0 48.76C0 49.91 0.34 51.1 0.95 52.01L4.55 57.41C5.13 58.28 5.95 58.96 6.9 59.4C5.14 66.46 5.69 78.38 5.69 78.14C5.69 83.55 10.08 87.94 15.48 87.94C16.37 87.94 17.23 87.82 18.04 87.6C19.33 89.58 21.55 90.83 23.88 90.83C26.22 90.83 28.43 89.58 29.72 87.6C30.54 87.82 31.4 87.94 32.28 87.94C37.68 87.94 42.08 83.55 42.08 78.14C42.08 71.01 42.42 65.09 40.88 59.39C41.82 58.95 42.64 58.27 43.21 57.41L46.81 52.01C47.42 51.1 47.77 49.91 47.77 48.76C47.77 45.62 45.21 43.06 42.07 43.06L33.78 43.06ZM3.28 50.46C2.98 50.01 2.79 49.36 2.79 48.76C2.79 47.16 4.09 45.86 5.69 45.86L13.99 45.86C15.58 45.86 16.88 47.16 16.88 48.76C16.88 49.36 16.7 50.01 16.4 50.46L12.8 55.86C12.26 56.67 11.36 57.15 10.39 57.15L9.39 57.15C8.39 57.15 7.4 56.64 6.88 55.86L3.28 50.46ZM20.66 86.46C21.98 85.63 23.08 84.51 23.88 83.19C24.68 84.51 25.79 85.63 27.1 86.46C26.3 87.43 25.12 88.03 23.88 88.03C22.65 88.03 21.46 87.43 20.66 86.46ZM23.88 73.95C24.48 73.95 24.99 74.32 25.19 74.85L23.88 76.16L22.57 74.85C22.77 74.32 23.28 73.95 23.88 73.95ZM32.28 85.14C28.61 85.14 25.59 82.3 25.3 78.7L27.67 76.33C27.93 76.07 28.08 75.72 28.08 75.34C28.08 73.03 26.2 71.15 23.88 71.15C21.57 71.15 19.68 73.03 19.68 75.34C19.68 75.72 19.83 76.07 20.09 76.33L22.46 78.7C22.18 82.3 19.16 85.14 15.48 85.14C11.63 85.14 8.49 82 8.49 78.14C8.49 77.79 7.96 66.55 9.65 59.95L10.39 59.95C12.29 59.95 14.07 59 15.12 57.41L18.73 52.01C19.27 51.2 19.6 50.16 19.67 49.13C20.97 48.82 22.38 48.66 23.88 48.66C25.38 48.66 26.8 48.82 28.09 49.13C28.16 50.16 28.5 51.2 29.04 52.01L32.64 57.41C32.89 57.79 33.18 58.12 33.5 58.42C32.36 57.62 30.98 57.15 29.48 57.15C25.62 57.15 22.48 60.29 22.48 64.15C22.48 68.01 25.62 71.15 29.48 71.15C33.34 71.15 36.48 68.01 36.48 64.15C36.48 62.1 35.59 60.25 34.18 58.97C35.11 59.6 36.22 59.95 37.38 59.95L38.13 59.95C39.61 65.27 39.28 70.85 39.28 78.14C39.28 82 36.14 85.14 32.28 85.14ZM29.48 68.35C27.16 68.35 25.28 66.46 25.28 64.15C25.28 61.83 27.16 59.95 29.48 59.95C31.8 59.95 33.68 61.83 33.68 64.15C33.68 66.46 31.8 68.35 29.48 68.35ZM40.88 55.86C40.36 56.64 39.38 57.15 38.38 57.15L37.38 57.15C36.41 57.15 35.51 56.67 34.97 55.86L31.37 50.46C31.07 50.01 30.88 49.36 30.88 48.76C30.88 47.16 32.18 45.86 33.78 45.86L42.07 45.86C43.67 45.86 44.97 47.16 44.97 48.76C44.97 49.36 44.78 50.01 44.48 50.46L40.88 55.86Z" stroke="#FFC59E" stroke-opacity="1.000000" stroke-width="1.000000"/>
	<path d="M18.28 65.55C19.06 65.55 19.68 64.92 19.68 64.15C19.68 63.37 19.06 62.75 18.28 62.75C17.51 62.75 16.88 63.37 16.88 64.15C16.88 64.92 17.51 65.55 18.28 65.55Z" fill="#FFC59E" fill-opacity="1.000000" fill-rule="nonzero"/>
	<path d="M18.28 65.55C17.51 65.55 16.88 64.92 16.88 64.15C16.88 63.37 17.51 62.75 18.28 62.75C19.06 62.75 19.68 63.37 19.68 64.15C19.68 64.92 19.06 65.55 18.28 65.55Z" stroke="#FFC59E" stroke-opacity="1.000000" stroke-width="1.000000"/>
	<path d="M29.48 65.55C30.25 65.55 30.88 64.92 30.88 64.15C30.88 63.37 30.25 62.75 29.48 62.75C28.71 62.75 28.08 63.37 28.08 64.15C28.08 64.92 28.71 65.55 29.48 65.55Z" fill="#FFC59E" fill-opacity="1.000000" fill-rule="nonzero"/>
	<path d="M29.48 65.55C28.71 65.55 28.08 64.92 28.08 64.15C28.08 63.37 28.71 62.75 29.48 62.75C30.25 62.75 30.88 63.37 30.88 64.15C30.88 64.92 30.25 65.55 29.48 65.55Z" stroke="#FFC59E" stroke-opacity="1.000000" stroke-width="1.000000"/>
</svg>
