<svg width="110.000000" height="110.000000" viewBox="0 0 110 110" fill="none" xmlns="http://www.w3.org/2000/svg" xmlns:xlink="http://www.w3.org/1999/xlink">
	<desc>
			Created with Pixso.
	</desc>
	<defs/>
	<path id="Vector" d="M93.88 32.44C85 32.44 77.77 39.66 77.77 48.55C77.77 56.33 83.31 62.84 90.66 64.34L90.66 97.1C90.66 100.66 87.77 103.55 84.21 103.55C80.66 103.55 77.77 100.66 77.77 97.1C77.77 90.16 77.77 97.08 77.77 84.21C77.77 77.11 71.99 71.32 64.88 71.32C57.77 71.32 51.99 77.11 51.99 84.21C51.99 88.79 51.99 92.52 51.99 97.1C51.99 100.66 49.1 103.55 45.54 103.55C41.93 103.55 38.88 100.6 38.88 97.1L38.88 70.94C42.77 70.01 46.29 67.44 48.32 63.88C48.32 63.88 68.81 27.82 69.56 26.5C70.71 24.48 71.32 22.18 71.32 19.85C71.32 12.63 65.59 6.73 58.43 6.45L58.43 3.22C58.43 1.44 56.99 0 55.21 0C53.43 0 51.99 1.44 51.99 3.22L51.99 16.11C51.99 17.89 53.43 19.33 55.21 19.33C56.99 19.33 58.43 17.89 58.43 16.11L58.43 12.91C62.03 13.17 64.88 16.18 64.88 19.85C64.88 21.06 64.56 22.25 63.96 23.31L51.45 45.33L19.87 45.33L7.36 23.3C6.76 22.25 6.44 21.06 6.44 19.85C6.44 16.18 9.29 13.17 12.89 12.91L12.89 16.11C12.89 17.89 14.33 19.33 16.11 19.33C17.89 19.33 19.33 17.89 19.33 16.11L19.33 3.22C19.33 1.44 17.89 0 16.11 0C14.33 0 12.89 1.44 12.89 3.22L12.89 6.45C5.73 6.73 0 12.63 0 19.85C0 22.18 0.61 24.48 1.76 26.49C2.36 27.56 23 63.89 23 63.89C25.03 67.44 28.54 70.01 32.44 70.94L32.44 97.1C32.44 104.27 38.45 110 45.54 110C52.65 110 58.43 104.21 58.43 97.1C58.43 90.16 58.43 97.08 58.43 84.21C58.43 80.66 61.32 77.77 64.88 77.77C68.43 77.77 71.32 80.66 71.32 84.21C71.32 88.79 71.32 92.52 71.32 97.1C71.32 104.21 77.11 110 84.21 110C91.32 110 97.1 104.21 97.1 97.1L97.1 64.34C104.45 62.84 110 56.33 110 48.55C110 39.66 102.77 32.44 93.88 32.44ZM35.66 64.88C32.87 64.88 30.03 63.2 28.6 60.7L23.53 51.77L47.79 51.77L42.72 60.69C41.29 63.2 38.45 64.88 35.66 64.88ZM93.88 58.22C88.55 58.22 84.21 53.88 84.21 48.55C84.21 43.22 88.55 38.88 93.88 38.88C99.21 38.88 103.55 43.22 103.55 48.55C103.55 53.88 99.21 58.22 93.88 58.22Z" fill="#FFC59E" fill-opacity="1.000000" fill-rule="nonzero"/>
</svg>
